<?xml version="1.0" standalone="no"?>
<!DOCTYPE svg PUBLIC "-//W3C//DTD SVG 20010904//EN"
 "http://www.w3.org/TR/2001/REC-SVG-20010904/DTD/svg10.dtd">
<svg version="1.0" xmlns="http://www.w3.org/2000/svg"
 width="612.000000pt" height="371.000000pt" viewBox="0 0 612.000000 371.000000"
 preserveAspectRatio="xMidYMid meet">

<g transform="translate(0.000000,371.000000) scale(0.100000,-0.100000)"
fill="#000000" stroke="none">
<path d="M0 2910 l0 -800 80 0 c72 0 80 2 80 19 0 10 7 21 15 25 8 3 20 17 27
31 11 24 38 35 38 15 0 -16 47 -12 53 4 3 8 14 14 25 13 22 -1 82 22 82 33 0
4 36 11 80 15 69 6 80 10 80 26 0 15 7 19 40 19 33 0 40 -3 40 -20 0 -27 7
-25 37 10 21 26 32 30 74 30 27 0 49 5 49 10 0 6 18 10 40 10 33 0 40 3 40 20
0 18 7 20 80 20 47 0 80 4 80 10 0 6 18 10 40 10 33 0 40 3 40 20 0 18 7 20
79 20 45 0 81 4 83 10 2 6 55 13 121 17 90 5 117 9 117 20 0 10 13 13 49 12
35 -2 54 2 66 14 20 21 45 22 45 2 0 -11 11 -15 40 -15 35 0 40 3 40 24 0 21
5 24 61 30 34 3 88 6 120 6 33 0 59 4 59 10 0 6 18 10 40 10 22 0 40 -4 40
-10 0 -6 33 -10 80 -10 47 0 80 4 80 10 0 6 33 10 80 10 64 0 80 3 80 15 0 11
11 15 40 15 29 0 40 -4 40 -15 0 -11 11 -15 40 -15 29 0 40 4 40 15 0 11 11
15 40 15 29 0 40 -4 40 -15 0 -11 11 -15 40 -15 22 0 40 5 40 10 0 6 18 10 40
10 22 0 40 -4 40 -10 0 -6 60 -10 160 -10 100 0 160 4 160 10 0 6 60 10 160
10 112 0 160 3 160 11 0 8 17 10 50 7 27 -3 54 0 59 5 7 7 15 6 26 -3 11 -9
37 -11 100 -5 87 7 89 8 88 52 -1 21 25 22 30 1 4 -14 11 -19 22 -14 13 5 15
1 10 -14 -9 -27 10 -25 29 2 14 20 16 20 16 4 0 -10 -9 -29 -20 -43 -11 -14
-20 -21 -20 -14 0 6 -7 11 -15 11 -12 0 -12 -3 3 -18 16 -17 18 -16 43 6 36
32 43 69 15 84 -11 6 -23 10 -26 8 -24 -13 -47 -17 -47 -6 0 7 19 13 49 14 34
1 47 -2 46 -10 -2 -8 7 -12 22 -11 14 1 18 0 8 -3 -12 -4 -18 -15 -18 -35 0
-28 2 -29 45 -29 40 0 45 -3 45 -22 0 -18 2 -20 10 -8 5 8 6 26 3 39 -4 18 -3
22 6 16 7 -4 11 -17 9 -30 -3 -12 0 -22 6 -22 17 0 14 109 -3 115 -8 2 -11 1
-8 -4 3 -5 -22 -7 -56 -5 l-62 5 70 7 c39 3 75 4 80 2 10 -3 5 -118 -9 -175
-3 -16 -8 -39 -11 -53 -5 -23 -9 -25 -65 -25 -60 0 -60 0 -60 -30 l0 -30 68 0
c37 0 62 -4 56 -8 -6 -4 -10 -16 -8 -27 2 -10 -2 -25 -8 -33 -9 -10 -6 -14 10
-19 12 -3 22 -6 22 -8 0 -1 -5 -27 -11 -56 -6 -30 -10 -81 -10 -113 1 -43 -4
-65 -16 -78 -9 -10 -17 -35 -17 -53 0 -19 -4 -35 -8 -35 -4 0 -8 14 -8 30 0
17 -4 30 -10 30 -5 0 -10 -14 -10 -30 0 -20 -6 -33 -17 -37 -28 -11 -43 -30
-44 -55 0 -22 -1 -22 -9 -3 -7 17 -9 17 -9 3 -1 -10 -7 -18 -14 -18 -8 0 -35
56 -66 138 -30 75 -58 141 -63 147 -10 11 12 -48 85 -235 39 -97 77 -221 49
-155 -5 11 -14 21 -21 21 -24 3 -25 5 -11 15 11 8 8 9 -15 4 -37 -8 -38 -9
-40 -42 0 -15 -5 -28 -11 -30 -5 -2 -43 78 -83 177 -40 100 -75 179 -77 177
-2 -2 30 -87 71 -188 41 -101 75 -194 75 -206 0 -18 -6 -23 -27 -23 -16 0 -45
-3 -65 -6 -37 -7 -38 -6 -39 27 -2 34 -2 34 -6 4 -3 -16 -11 -34 -19 -38 -8
-4 -14 -17 -14 -27 0 -12 -7 -20 -17 -21 -15 0 -15 -2 2 -9 l20 -9 -20 -1 -20
-1 20 -9 c19 -8 19 -9 -3 -9 -28 -1 -19 -21 9 -21 12 0 19 -5 17 -12 -3 -9
-30 -14 -77 -16 l-73 -3 2 -47 c3 -64 0 -101 -7 -82 -4 8 -12 21 -20 28 -11
11 -13 11 -13 -1 0 -9 6 -17 13 -20 6 -2 9 -7 6 -11 -4 -4 -14 0 -23 9 -9 9
-16 12 -16 6 0 -15 -64 -13 -125 3 l-50 13 43 13 c29 9 42 19 42 32 0 16 -9
18 -66 18 -57 0 -67 -3 -71 -20 -3 -11 -13 -20 -22 -20 -9 0 -23 -5 -31 -11
-13 -9 -12 -10 3 -5 11 3 16 2 12 -4 -3 -6 -14 -10 -23 -11 -14 0 -14 -2 3
-10 20 -9 -12 -7 -90 7 -23 4 -26 3 -15 -5 8 -6 40 -13 71 -17 50 -6 56 -9 51
-26 -3 -14 -8 -16 -15 -9 -13 13 -47 15 -47 2 0 -12 18 -18 83 -26 46 -6 57
-11 57 -25 0 -10 -6 -21 -12 -24 -7 -3 0 -3 16 1 17 3 31 1 35 -6 4 -6 24 -14
44 -18 33 -5 37 -3 37 15 0 11 6 23 13 25 9 4 9 6 -1 6 -27 2 0 21 31 22 21 1
25 3 12 6 -10 3 -29 12 -40 19 -12 8 -25 11 -28 7 -4 -3 -7 -1 -7 5 0 7 28 10
80 9 l80 -2 0 -37 c0 -20 -5 -49 -10 -64 -12 -31 -8 -39 17 -30 14 6 15 9 4
15 -9 6 -10 11 -2 15 6 4 12 2 12 -3 1 -6 2 -17 3 -23 1 -12 54 -23 194 -41
l42 -5 0 79 0 79 28 0 c46 0 52 -11 54 -93 l3 -76 35 -5 c19 -3 64 -8 100 -12
36 -3 73 -8 82 -9 9 -2 47 -6 85 -10 37 -3 102 -9 144 -13 42 -4 81 -6 87 -4
5 1 7 33 5 78 -4 52 -1 80 8 92 11 14 11 15 -1 5 -8 -7 -37 -13 -64 -13 -48 0
-50 1 -28 15 14 11 48 17 97 18 72 2 75 1 75 -20 0 -13 4 -23 8 -23 17 0 21
13 11 31 -7 15 -6 19 5 19 8 0 18 -12 23 -27 9 -27 10 -27 15 -5 4 12 2 22 -3
22 -4 0 -5 7 -2 17 4 10 2 14 -4 10 -6 -4 -10 4 -10 18 0 14 3 28 8 31 5 3 9
-3 9 -13 0 -26 40 -50 51 -31 7 10 9 10 9 1 0 -7 5 -13 10 -13 6 0 10 14 10
30 0 26 3 30 23 26 17 -3 23 1 24 15 1 14 -5 19 -22 19 -13 0 -27 5 -31 12 -5
8 0 9 17 4 53 -15 92 -19 86 -8 -8 12 2 42 14 42 5 0 9 -47 9 -104 0 -118 -1
-116 82 -116 28 0 48 -3 45 -6 -6 -7 -372 13 -415 22 -22 4 -23 2 -16 -33 3
-21 9 -41 13 -45 3 -4 86 -10 184 -14 163 -7 177 -6 177 10 0 11 -5 14 -12 10
-8 -5 -9 -2 -5 10 4 10 7 20 7 22 0 2 5 4 10 4 6 0 10 -16 10 -34 l0 -35 85 0
c47 0 90 -3 95 -6 6 -3 10 -19 10 -36 0 -16 5 -29 10 -29 6 0 10 16 10 35 0
31 3 34 23 31 12 -3 27 -5 34 -5 6 -1 14 -18 16 -39 l4 -37 1 38 2 39 38 -6
c20 -3 38 -5 40 -6 1 0 2 -13 2 -30 0 -28 3 -30 35 -30 38 0 59 25 34 41 -23
15 -35 9 -15 -6 19 -14 19 -15 -8 -15 -21 0 -27 4 -22 15 3 8 1 15 -4 15 -6 0
-10 5 -10 11 0 5 10 9 23 7 18 -2 22 1 20 19 -2 20 2 23 30 23 24 0 28 3 17
10 -8 5 -33 10 -54 10 -49 0 -42 10 8 12 20 1 36 4 36 8 0 8 -61 30 -83 30
-20 0 -107 41 -107 51 0 4 9 5 20 2 23 -6 74 23 65 37 -4 6 -29 10 -56 10 -31
0 -48 4 -44 10 3 6 20 10 37 10 38 0 34 5 -10 13 -21 4 -31 3 -27 -3 7 -11
-74 -14 -124 -4 -53 11 -24 22 46 17 46 -3 63 -1 54 6 -12 8 -9 13 17 28 18
10 32 21 32 26 0 4 8 7 17 7 15 0 15 1 1 13 -9 6 -18 19 -21 27 -4 10 -6 9 -6
-6 -1 -29 -20 -44 -58 -44 -18 0 -33 -5 -33 -11 0 -6 9 -8 21 -4 15 5 19 4 15
-4 -4 -6 -15 -11 -24 -12 -14 0 -13 -2 3 -9 16 -7 17 -9 3 -9 -26 -1 -48 10
-48 25 0 13 39 40 53 36 12 -3 8 36 -5 44 -7 4 -8 3 -4 -4 4 -7 1 -12 -7 -12
-7 0 -24 -11 -37 -25 -13 -14 -31 -24 -40 -23 -8 2 -26 -7 -39 -21 -18 -17
-26 -20 -29 -11 -5 15 47 62 60 54 4 -3 8 -1 8 4 0 5 10 8 23 8 13 -1 22 5 22
14 0 10 -8 14 -23 12 -14 -2 -29 4 -38 15 -13 17 -13 17 -14 -3 0 -11 -16 -35
-35 -54 -30 -29 -35 -40 -35 -82 0 -41 -3 -48 -20 -48 -11 0 -20 3 -21 8 -13
135 -13 162 -4 161 22 -3 35 1 35 11 0 6 -15 10 -34 10 -19 0 -38 4 -41 10 -4
6 9 7 35 4 31 -4 39 -3 36 8 -2 7 -7 25 -10 39 -4 19 -12 26 -28 26 -53 -1
-78 4 -78 13 0 6 6 10 14 10 18 0 40 27 28 34 -5 3 -42 9 -81 12 -56 5 -71 10
-71 23 0 13 2 13 9 2 7 -11 26 -12 81 -8 71 6 107 16 59 18 -22 0 -23 1 -4 9
16 7 17 9 3 9 -9 1 -18 11 -20 24 -2 16 -9 21 -25 19 -34 -5 -28 11 10 28 l32
14 -25 7 c-14 4 -46 7 -72 8 -29 1 -48 6 -48 12 0 8 21 10 68 6 37 -2 57 -3
46 0 -16 3 -23 14 -28 45 -4 27 -3 44 5 48 7 5 7 9 1 11 -5 2 -12 30 -15 62
-6 56 -6 57 17 51 13 -3 27 -1 30 4 3 5 -6 13 -21 17 -28 7 -43 21 -43 40 0 6
5 3 11 -5 9 -12 10 -10 6 8 -4 17 0 25 16 32 21 9 21 9 -3 10 l-25 1 25 10
c17 7 26 7 28 0 2 -6 11 -11 20 -11 15 0 15 2 2 11 -11 8 -6 9 18 4 l33 -7 -3
44 -3 43 -50 2 c-27 1 -44 0 -37 -3 18 -8 15 -37 -3 -30 -8 3 -15 1 -15 -4 0
-6 7 -10 15 -10 17 0 20 -16 5 -25 -5 -3 -10 0 -10 7 0 10 -3 9 -11 -2 -8 -11
-9 -6 -6 22 10 69 -17 103 -49 61 -12 -16 -13 -13 -14 23 0 48 -4 46 129 64
45 6 86 8 90 5 3 -4 12 -21 19 -38 10 -27 11 -28 7 -5 -3 14 -8 33 -11 42 -5
12 0 16 19 16 21 0 24 4 20 23 -4 12 -13 31 -21 42 -11 16 -13 16 -9 3 5 -15
0 -18 -31 -18 -20 0 -67 -3 -103 -6 -57 -6 -66 -9 -62 -24 4 -15 -2 -18 -39
-18 -29 1 -36 3 -20 7 13 3 23 9 23 14 -1 4 -1 12 -1 17 0 6 -7 10 -15 10 -9
0 -15 9 -15 21 0 13 5 19 13 16 8 -3 14 4 15 16 1 17 -1 18 -8 7 -7 -11 -10
-8 -16 13 -6 28 -1 42 16 42 5 0 16 9 24 20 15 19 15 19 16 -8 0 -41 31 -48
170 -40 108 5 120 4 120 -10 0 -13 9 -17 40 -17 35 0 40 3 40 22 0 21 2 20 33
-10 32 -31 36 -32 120 -32 51 0 87 -4 87 -10 0 -5 18 -10 40 -10 22 0 40 5 40
10 0 6 18 10 40 10 29 0 40 -4 40 -15 0 -12 16 -15 80 -15 47 0 80 -4 80 -10
0 -5 18 -10 40 -10 29 0 40 -4 40 -15 0 -11 11 -15 40 -15 28 0 40 -4 40 -14
0 -10 22 -16 80 -21 44 -4 80 -11 80 -16 0 -5 18 -9 40 -9 22 0 40 -4 40 -10
0 -5 15 -10 34 -10 19 0 38 -4 41 -10 3 -5 24 -10 46 -10 21 0 39 -4 39 -10 0
-5 9 -10 20 -10 20 0 20 7 20 700 l0 700 -3060 0 -3060 0 0 -800z m4230 260
c0 -5 -5 -10 -11 -10 -5 0 -7 5 -4 10 3 6 8 10 11 10 2 0 4 -4 4 -10z m3 -82
c3 -21 2 -38 -4 -38 -5 0 -9 19 -9 42 0 49 5 47 13 -4z m4 -98 c0 -22 -3 -40
-8 -40 -5 0 -9 18 -9 40 0 52 15 52 17 0z m-3 -103 c5 -27 4 -37 -3 -32 -6 3
-11 22 -11 42 0 44 5 41 14 -10z m0 -77 c-2 -20 2 -32 14 -39 15 -9 13 -10 -8
-10 -14 0 -34 5 -45 10 -19 9 -18 9 3 5 18 -3 22 0 22 23 0 23 7 41 15 41 1 0
1 -13 -1 -30z m334 -27 c-10 -2 -26 -2 -35 0 -10 3 -2 5 17 5 19 0 27 -2 18
-5z m-135 -10 c-7 -2 -19 -2 -25 0 -7 3 -2 5 12 5 14 0 19 -2 13 -5z m-86 -9
c-3 -3 -12 -4 -19 -1 -8 3 -5 6 6 6 11 1 17 -2 13 -5z m313 2 c0 -3 -4 -8 -10
-11 -5 -3 -10 -1 -10 4 0 6 5 11 10 11 6 0 10 -2 10 -4z m-74 -13 c-10 -11
-37 -12 -30 -2 3 5 12 9 21 9 9 0 13 -3 9 -7z m-739 -9 c-3 -3 -12 -4 -19 -1
-8 3 -5 6 6 6 11 1 17 -2 13 -5z m60 0 c-3 -3 -12 -4 -19 -1 -8 3 -5 6 6 6 11
1 17 -2 13 -5z m186 -1 c-7 -2 -19 -2 -25 0 -7 3 -2 5 12 5 14 0 19 -2 13 -5z
m427 -3 c0 -5 -4 -10 -10 -10 -5 0 -10 5 -10 10 0 6 5 10 10 10 6 0 10 -4 10
-10z m32 -47 c8 -10 6 -13 -6 -13 -12 0 -16 9 -15 38 1 27 3 30 6 12 3 -14 10
-31 15 -37z m-559 40 c-13 -2 -35 -2 -50 0 -16 2 -5 4 22 4 28 0 40 -2 28 -4z
m421 -13 c-21 -8 -37 -3 -29 10 3 4 15 6 27 2 21 -5 21 -6 2 -12z m-567 4 c-3
-3 -12 -4 -19 -1 -8 3 -5 6 6 6 11 1 17 -2 13 -5z m40 0 c-3 -3 -12 -4 -19 -1
-8 3 -5 6 6 6 11 1 17 -2 13 -5z m448 -8 c-11 -8 -24 -12 -28 -9 -11 7 12 23
32 23 11 0 9 -4 -4 -14z m-60 -6 c-3 -5 -13 -10 -21 -10 -8 0 -14 5 -14 10 0
6 9 10 21 10 11 0 17 -4 14 -10z m231 -12 c-7 -13 -8 -21 -1 -26 15 -10 13
-44 -2 -49 -7 -3 -13 0 -13 6 0 6 4 11 10 11 5 0 7 7 3 16 -4 11 -8 12 -13 4
-4 -7 -7 3 -6 22 1 24 6 34 17 34 13 0 14 -4 5 -18z m-320 0 c-16 -9 -82 -5
-93 6 -4 4 19 6 51 5 39 -2 53 -5 42 -11z m194 -3 c11 -13 10 -14 -3 -10 -8 4
-18 2 -22 -4 -3 -6 -12 -11 -18 -11 -7 0 -4 6 5 14 10 7 15 16 11 19 -3 4 -2
7 4 7 6 0 16 -7 23 -15z m-90 -10 c-7 -9 -15 -13 -17 -11 -7 7 7 26 19 26 6 0
6 -6 -2 -15z m-253 -37 c-3 -8 -6 -5 -6 6 -1 11 2 17 5 13 3 -3 4 -12 1 -19z
m279 -18 c0 -21 -3 -37 -7 -34 -11 6 -42 -54 -36 -69 3 -7 9 0 15 15 11 28 32
46 32 29 0 -6 20 -11 46 -11 44 0 46 1 40 25 -4 14 -2 25 4 25 5 0 10 8 10 17
0 13 3 14 12 5 8 -8 8 -15 1 -24 -6 -7 -7 -22 -3 -32 4 -14 9 -16 14 -8 4 7 4
17 1 22 -3 6 -1 10 5 10 6 0 15 10 20 23 5 13 9 16 10 7 0 -8 7 -28 16 -45
l14 -30 -6 30 c-3 16 -2 26 2 22 5 -4 9 -32 10 -61 2 -50 0 -52 -25 -54 -14
-2 -62 -6 -106 -11 -58 -6 -86 -4 -100 4 -16 10 -23 10 -34 -2 -12 -13 -12
-16 0 -24 29 -17 0 -18 -52 -1 -50 18 -52 19 -26 26 15 3 27 11 27 17 0 6 -5
7 -12 3 -7 -4 -8 -3 -4 4 13 21 27 12 24 -15 -2 -15 2 -28 10 -30 8 -3 12 8
12 36 0 27 4 40 12 39 7 -2 14 7 16 20 2 12 12 28 22 34 10 6 16 18 13 25 -3
7 0 13 6 13 6 0 11 5 11 11 0 17 -21 -1 -32 -29 -9 -23 -12 -24 -15 -9 -4 17
31 67 47 67 3 0 6 -18 6 -40z m240 21 c0 -11 -4 -17 -8 -15 -13 8 -9 -11 5
-25 10 -11 9 -13 -3 -9 -28 8 -24 55 5 68 1 0 1 -9 1 -19z m-446 -101 c8 -5
11 -10 5 -10 -5 0 -17 5 -25 10 -8 5 -10 10 -5 10 6 0 17 -5 25 -10z m-30 -40
c0 -5 -7 -10 -15 -10 -8 0 -15 5 -15 10 0 6 7 10 15 10 8 0 15 -4 15 -10z m55
0 c3 -5 -1 -10 -9 -10 -9 0 -16 5 -16 10 0 6 4 10 9 10 6 0 13 -4 16 -10z m-5
-30 c0 -5 -2 -10 -4 -10 -3 0 -8 5 -11 10 -3 6 -1 10 4 10 6 0 11 -4 11 -10z
m195 -20 c-4 -6 14 -11 47 -12 39 -1 44 -2 19 -5 -19 -3 -51 -1 -70 2 -31 6
-33 9 -16 15 27 11 27 11 20 0z m48 3 c-7 -2 -19 -2 -25 0 -7 3 -2 5 12 5 14
0 19 -2 13 -5z m50 0 c-7 -2 -19 -2 -25 0 -7 3 -2 5 12 5 14 0 19 -2 13 -5z
m48 -11 c-7 -2 -18 1 -23 6 -8 8 -4 9 13 5 13 -4 18 -8 10 -11z m282 1 c-7 -2
-19 -2 -25 0 -7 3 -2 5 12 5 14 0 19 -2 13 -5z m44 1 c-3 -3 -12 -4 -19 -1 -8
3 -5 6 6 6 11 1 17 -2 13 -5z m-751 -21 c-2 -15 -14 -18 -67 -19 l-64 -1 65 7
c36 3 56 7 45 8 -17 2 -18 4 -5 12 22 14 29 12 26 -7z m611 11 c-3 -3 -12 -4
-19 -1 -8 3 -5 6 6 6 11 1 17 -2 13 -5z m-674 -11 c-13 -2 -33 -2 -45 0 -13 2
-3 4 22 4 25 0 35 -2 23 -4z m92 -3 c3 -5 1 -10 -4 -10 -6 0 -11 5 -11 10 0 6
2 10 4 10 3 0 8 -4 11 -10z m141 -22 c1 -13 4 -52 8 -88 3 -36 10 -99 15 -140
22 -172 24 -222 10 -231 -11 -7 -10 -9 4 -9 11 0 17 -8 17 -25 0 -18 -5 -25
-18 -25 -10 0 -19 6 -20 13 -6 78 -31 447 -34 517 -2 32 14 20 18 -12z m491
26 c-3 -3 -12 -4 -19 -1 -8 3 -5 6 6 6 11 1 17 -2 13 -5z m46 -1 c-7 -2 -19
-2 -25 0 -7 3 -2 5 12 5 14 0 19 -2 13 -5z m44 1 c-3 -3 -12 -4 -19 -1 -8 3
-5 6 6 6 11 1 17 -2 13 -5z m-527 -36 c0 -19 -2 -20 -10 -8 -13 19 -13 30 0
30 6 0 10 -10 10 -22z m200 18 c0 -2 -18 -6 -39 -8 -22 -2 -37 0 -35 4 5 8 74
11 74 4z m-330 -28 c11 -12 19 -29 17 -38 -1 -8 6 -21 18 -27 17 -11 16 -12
-15 -6 -36 6 -104 68 -94 85 10 16 53 8 74 -14z m233 15 c-7 -2 -19 -2 -25 0
-7 3 -2 5 12 5 14 0 19 -2 13 -5z m58 -23 l89 0 0 -45 c0 -41 -2 -45 -24 -45
-15 0 -26 7 -29 18 -2 9 -2 -3 1 -28 2 -25 8 -50 13 -56 5 -6 6 -14 2 -17 -3
-4 2 -7 12 -7 15 0 17 6 11 40 -3 22 -2 40 2 40 5 0 10 -27 11 -60 1 -38 -2
-60 -9 -60 -6 0 -8 5 -5 10 3 6 -1 10 -9 10 -11 0 -15 -10 -14 -35 1 -26 6
-35 19 -35 15 0 17 -6 12 -37 -3 -21 -12 -43 -19 -49 -17 -14 -18 -34 -1 -34
8 0 7 -4 -3 -11 -11 -8 -12 -12 -2 -16 21 -8 3 -23 -29 -23 -28 0 -29 -1 -30
-52 -1 -56 -4 -55 -14 4 -4 25 -10 35 -19 32 -10 -4 -12 7 -9 48 4 50 20 78
34 57 4 -7 9 -4 12 5 5 12 0 16 -23 16 -22 0 -28 4 -24 15 5 11 -1 15 -17 15
-19 0 -21 -2 -10 -9 12 -8 8 -11 -15 -17 l-29 -8 25 -6 c23 -5 25 -11 28 -63
3 -55 2 -57 -23 -57 -29 0 -45 27 -24 41 10 6 10 9 2 9 -23 0 -14 38 10 43 19
4 18 4 -5 6 -16 0 -28 7 -28 14 0 18 -19 178 -25 210 -4 20 -1 27 10 27 8 0
15 4 15 10 0 5 -7 7 -15 4 -11 -5 -15 1 -15 17 0 19 2 21 10 9 8 -13 10 -12
10 3 0 19 30 24 31 5 0 -7 4 -4 9 7 13 29 12 35 -5 35 -8 0 -15 7 -15 16 0 11
5 14 16 10 9 -3 56 -6 105 -6z m-151 -30 c0 -11 -4 -20 -10 -20 -5 0 -10 9
-10 20 0 11 5 20 10 20 6 0 10 -9 10 -20z m-3800 -70 c0 -5 -7 -10 -15 -10 -8
0 -15 5 -15 10 0 6 7 10 15 10 8 0 15 -4 15 -10z m4120 -5 c0 -18 -20 -20 -20
-2 -1 7 -6 4 -15 -6 -7 -11 -11 -25 -8 -33 3 -8 0 -14 -6 -14 -12 0 -14 14 -5
48 7 26 54 32 54 7z m90 5 c0 -5 -7 -10 -15 -10 -8 0 -15 5 -15 10 0 6 7 10
15 10 8 0 15 -4 15 -10z m30 6 c0 -3 -4 -8 -10 -11 -5 -3 -10 -1 -10 4 0 6 5
11 10 11 6 0 10 -2 10 -4z m-30 -41 c0 -8 -4 -15 -9 -15 -13 0 -22 16 -14 24
11 11 23 6 23 -9z m30 5 c0 -5 -4 -10 -10 -10 -5 0 -10 5 -10 10 0 6 5 10 10
10 6 0 10 -4 10 -10z m-120 -15 c0 -8 -4 -15 -10 -15 -5 0 -10 7 -10 15 0 8 5
15 10 15 6 0 10 -7 10 -15z m-30 -50 c0 -17 -5 -25 -17 -25 -15 0 -16 2 -3 10
10 6 11 10 3 10 -7 0 -13 7 -13 15 0 8 7 15 15 15 9 0 15 -9 15 -25z m-50 -39
c0 -3 -4 -8 -10 -11 -5 -3 -10 -1 -10 4 0 6 5 11 10 11 6 0 10 -2 10 -4z m50
-6 c0 -5 -7 -7 -15 -4 -8 4 -15 8 -15 10 0 2 7 4 15 4 8 0 15 -4 15 -10z m-23
-92 c-3 -8 -6 -5 -6 6 -1 11 2 17 5 13 3 -3 4 -12 1 -19z m43 -38 c0 -15 -6
-27 -12 -27 -8 0 -13 15 -13 38 -1 30 2 36 12 27 7 -6 13 -23 13 -38z m0 -44
c0 -3 -4 -8 -10 -11 -5 -3 -10 -1 -10 4 0 6 5 11 10 11 6 0 10 -2 10 -4z
m-383 -41 c0 -8 -4 -15 -9 -15 -4 0 -8 7 -8 15 0 8 4 15 8 15 5 0 9 -7 9 -15z
m13 -40 c7 -8 9 -15 4 -15 -5 0 -10 -25 -10 -55 -1 -52 0 -56 25 -61 14 -3 43
-10 64 -16 34 -10 37 -14 35 -43 -1 -17 2 -36 6 -43 4 -7 2 -12 -3 -12 -6 0
-11 5 -11 10 0 6 -7 10 -15 10 -8 0 -15 7 -15 15 0 9 6 12 15 9 10 -4 15 0 15
15 0 26 -20 27 -40 4 -9 -11 -14 -34 -12 -59 3 -36 6 -41 23 -37 15 4 19 0 19
-19 0 -14 -3 -27 -6 -30 -8 -9 -45 3 -39 12 8 13 -6 41 -17 34 -14 -9 -78 -11
-78 -2 0 4 -7 5 -15 2 -8 -4 -15 -14 -15 -24 0 -14 8 -18 38 -17 20 0 39 4 42
8 3 4 11 1 18 -7 11 -12 4 -14 -47 -14 l-59 0 -4 55 c-2 42 0 55 11 55 11 0
10 4 -3 19 -10 11 -16 26 -13 33 4 8 6 7 6 -4 1 -14 10 -18 36 -18 33 0 35 2
35 35 0 24 -5 35 -15 35 -18 0 -20 30 -2 31 10 0 10 2 0 6 -8 3 -13 23 -13 47
0 57 15 72 40 41z m152 -67 c2 -40 1 -75 -3 -78 -4 -3 -9 -16 -12 -30 -4 -25
-4 -25 -6 3 0 15 -5 27 -11 27 -6 0 -10 32 -10 75 0 67 2 75 19 75 16 0 19
-10 23 -72z m-492 32 c0 -5 -2 -10 -4 -10 -3 0 -8 5 -11 10 -3 6 -1 10 4 10 6
0 11 -4 11 -10z m290 -7 c0 -5 -10 -19 -21 -33 l-20 -25 16 33 c15 30 25 41
25 25z m461 -53 c10 0 19 -6 19 -14 0 -9 -8 -12 -25 -8 -21 4 -25 10 -24 36 1
23 3 25 6 9 3 -15 12 -23 24 -23z m-771 -20 c0 -5 -7 -10 -16 -10 -8 0 -12 5
-9 10 3 6 10 10 16 10 5 0 9 -4 9 -10z m250 -22 c0 -9 3 -8 10 2 5 8 12 11 16
7 4 -4 2 -13 -4 -19 -7 -7 -12 -20 -12 -30 0 -15 -9 -18 -50 -18 l-50 0 0 35
c0 35 0 35 45 35 29 0 45 -4 45 -12z m317 -38 c-2 -23 -6 -28 -22 -25 -11 2
-22 4 -25 4 -3 1 -6 10 -6 21 0 25 26 27 27 3 0 -14 3 -13 11 5 15 29 18 28
15 -8z m163 -106 c0 -28 5 -44 15 -48 8 -3 15 -11 15 -17 0 -8 -4 -8 -12 -2
-7 6 -33 13 -57 16 -24 3 -48 10 -53 15 -5 5 3 7 21 4 l30 -4 -6 63 -6 64 26
-25 c20 -19 27 -35 27 -66z m40 51 c0 -8 -4 -15 -10 -15 -5 0 -10 7 -10 15 0
8 5 15 10 15 6 0 10 -7 10 -15z m-660 -15 c0 -5 -2 -10 -4 -10 -3 0 -8 5 -11
10 -3 6 -1 10 4 10 6 0 11 -4 11 -10z m430 -20 c0 -11 -7 -20 -15 -20 -8 0
-15 9 -15 20 0 11 7 20 15 20 8 0 15 -9 15 -20z m234 -12 c9 -37 7 -43 -9 -22
-16 21 -19 44 -6 44 5 0 11 -10 15 -22z m-161 -15 c-7 -2 -19 -2 -25 0 -7 3
-2 5 12 5 14 0 19 -2 13 -5z m-70 -33 c3 -11 10 -20 16 -20 15 0 14 20 -1 21
-16 1 21 17 41 18 9 1 11 -6 8 -19 -4 -17 0 -22 24 -27 16 -3 32 -10 35 -14 3
-5 20 -9 37 -9 18 0 39 -5 47 -10 10 -6 -3 -7 -39 -3 l-54 6 5 -32 5 -33 -56
6 c-138 16 -131 13 -131 62 0 40 2 44 25 44 18 0 23 4 19 15 -4 8 -2 15 4 15
5 0 12 -9 15 -20z m-583 -93 c0 -9 -36 9 -44 22 -4 5 5 4 19 -2 14 -7 25 -16
25 -20z m-236 -43 c11 -4 16 -19 16 -46 l0 -41 -46 7 c-26 3 -54 6 -64 6 -13
0 -17 10 -18 40 l-2 40 49 0 c27 0 56 -3 65 -6z m867 -1 c7 -50 7 -73 -1 -73
-6 0 -10 6 -11 13 0 6 -3 24 -5 40 -3 15 0 27 6 27 5 0 11 -3 11 -7z m-496
-48 c17 -14 26 -25 21 -25 -15 0 -86 51 -86 62 0 11 25 -3 65 -37z m895 -15
c0 -5 -2 -10 -4 -10 -3 0 -8 5 -11 10 -3 6 -1 10 4 10 6 0 11 -4 11 -10z
m-1162 -20 c-7 -11 -16 -16 -21 -11 -12 12 0 31 19 31 12 0 12 -3 2 -20z
m-188 -10 c0 -5 -4 -10 -9 -10 -6 0 -13 5 -16 10 -3 6 1 10 9 10 9 0 16 -4 16
-10z m47 -16 c12 -19 11 -20 -32 -23 -26 -1 -45 2 -45 9 0 5 11 10 25 10 18 0
23 4 18 16 -9 23 16 14 34 -12z m53 1 c0 -9 9 -15 23 -15 12 0 29 -5 37 -11
17 -11 -37 -3 -77 12 -28 11 -30 29 -3 29 11 0 20 -7 20 -15z m250 -5 c0 -5
-2 -10 -4 -10 -3 0 -8 5 -11 10 -3 6 -1 10 4 10 6 0 11 -4 11 -10z m1194 -9
c29 -16 46 -41 29 -41 -4 1 -24 14 -43 30 -38 33 -31 38 14 11z m-25 -39 c8
-15 5 -18 -22 -19 -18 -1 -24 1 -14 4 9 2 17 11 17 19 0 19 7 18 19 -4z
m-1092 -18 c-3 -3 -12 -4 -19 -1 -8 3 -5 6 6 6 11 1 17 -2 13 -5z m1173 -4 c0
-5 -5 -10 -11 -10 -5 0 -7 5 -4 10 3 6 8 10 11 10 2 0 4 -4 4 -10z m-803 -36
c-3 -3 -12 -4 -19 -1 -8 3 -5 6 6 6 11 1 17 -2 13 -5z"/>
<path d="M4470 2570 c0 -19 3 -21 12 -12 9 9 9 15 0 24 -9 9 -12 7 -12 -12z"/>
<path d="M4251 1914 c0 -11 3 -14 6 -6 3 7 2 16 -1 19 -3 4 -6 -2 -5 -13z"/>
<path d="M4351 2365 c1 -19 18 -51 18 -35 0 8 -4 22 -9 30 -5 8 -9 11 -9 5z"/>
<path d="M4451 2354 c0 -11 3 -14 6 -6 3 7 2 16 -1 19 -3 4 -6 -2 -5 -13z"/>
<path d="M4501 2344 c0 -11 3 -14 6 -6 3 7 2 16 -1 19 -3 4 -6 -2 -5 -13z"/>
<path d="M4372 2280 c0 -14 2 -19 5 -12 2 6 2 18 0 25 -3 6 -5 1 -5 -13z"/>
<path d="M4331 2274 c0 -11 3 -14 6 -6 3 7 2 16 -1 19 -3 4 -6 -2 -5 -13z"/>
<path d="M4368 2125 c2 -19 8 -33 12 -30 5 3 6 14 3 26 -4 12 0 25 8 30 11 7
9 9 -6 9 -18 0 -20 -5 -17 -35z"/>
<path d="M4220 1715 c0 -14 4 -25 9 -25 4 0 6 11 3 25 -2 14 -6 25 -8 25 -2 0
-4 -11 -4 -25z"/>
<path d="M4030 1730 c0 -11 7 -20 15 -20 8 0 15 9 15 20 0 11 -7 20 -15 20 -8
0 -15 -9 -15 -20z"/>
<path d="M4070 1731 c0 -15 6 -21 21 -21 25 0 22 33 -4 38 -12 2 -17 -3 -17
-17z"/>
<path d="M4441 1554 c0 -11 3 -14 6 -6 3 7 2 16 -1 19 -3 4 -6 -2 -5 -13z"/>
<path d="M3767 2631 c-7 -28 2 -32 24 -10 24 24 24 29 0 29 -10 0 -21 -9 -24
-19z"/>
<path d="M4545 2560 c3 -5 8 -10 11 -10 2 0 4 5 4 10 0 6 -5 10 -11 10 -5 0
-7 -4 -4 -10z"/>
<path d="M4580 2490 c6 -11 15 -20 20 -20 6 0 2 9 -7 20 -10 11 -19 20 -21 20
-1 0 2 -9 8 -20z"/>
<path d="M4681 2494 c0 -11 3 -14 6 -6 3 7 2 16 -1 19 -3 4 -6 -2 -5 -13z"/>
<path d="M4841 2404 c0 -11 3 -14 6 -6 3 7 2 16 -1 19 -3 4 -6 -2 -5 -13z"/>
<path d="M4821 2395 c0 -11 4 -29 9 -40 l9 -20 0 20 c0 11 -4 29 -9 40 l-9 20
0 -20z"/>
<path d="M4731 2389 c-1 -9 2 -19 7 -23 4 -4 12 -22 19 -39 6 -18 12 -25 12
-17 1 21 -37 99 -38 79z"/>
<path d="M3931 2370 c0 -8 4 -24 9 -35 5 -13 9 -14 9 -5 0 8 -4 24 -9 35 -5
13 -9 14 -9 5z"/>
<path d="M3982 2340 c0 -14 2 -19 5 -12 2 6 2 18 0 25 -3 6 -5 1 -5 -13z"/>
<path d="M4801 2320 c0 -8 4 -24 9 -35 5 -13 9 -14 9 -5 0 8 -4 24 -9 35 -5
13 -9 14 -9 5z"/>
<path d="M4841 2314 c0 -11 3 -14 6 -6 3 7 2 16 -1 19 -3 4 -6 -2 -5 -13z"/>
<path d="M3951 2284 c0 -11 3 -14 6 -6 3 7 2 16 -1 19 -3 4 -6 -2 -5 -13z"/>
<path d="M3991 2284 c0 -11 3 -14 6 -6 3 7 2 16 -1 19 -3 4 -6 -2 -5 -13z"/>
<path d="M4770 2281 c0 -6 4 -13 10 -16 6 -3 7 1 4 9 -7 18 -14 21 -14 7z"/>
<path d="M4852 2270 c0 -14 2 -19 5 -12 2 6 2 18 0 25 -3 6 -5 1 -5 -13z"/>
<path d="M4861 2224 c0 -11 3 -14 6 -6 3 7 2 16 -1 19 -3 4 -6 -2 -5 -13z"/>
<path d="M3741 2204 c0 -11 3 -14 6 -6 3 7 2 16 -1 19 -3 4 -6 -2 -5 -13z"/>
<path d="M4647 2139 c-3 -12 -1 -19 5 -17 13 5 20 38 8 38 -4 0 -10 -9 -13
-21z"/>
<path d="M3590 2145 c0 -5 5 -17 10 -25 5 -8 10 -10 10 -5 0 6 -5 17 -10 25
-5 8 -10 11 -10 5z"/>
<path d="M1740 2110 c-1 -19 -1 -153 0 -298 1 -228 -1 -263 -14 -268 -9 -3
-13 -10 -10 -15 3 -5 11 -7 17 -3 7 3 4 -1 -5 -9 -19 -15 -14 -27 9 -27 8 0
11 5 8 10 -3 6 -1 10 4 10 6 0 11 -4 11 -10 0 -5 4 -10 9 -10 11 0 9 33 -3 41
-5 4 -11 139 -13 300 -4 265 -9 374 -13 279z"/>
<path d="M4850 2121 c0 -6 4 -13 10 -16 6 -3 7 1 4 9 -7 18 -14 21 -14 7z"/>
<path d="M2654 1870 c0 -91 2 -128 3 -82 2 45 2 119 0 165 -1 45 -3 8 -3 -83z"/>
<path d="M4670 1990 c0 -11 4 -20 9 -20 5 0 7 9 4 20 -3 11 -7 20 -9 20 -2 0
-4 -9 -4 -20z"/>
<path d="M4962 1930 c0 -14 2 -19 5 -12 2 6 2 18 0 25 -3 6 -5 1 -5 -13z"/>
<path d="M4645 1911 c-6 -11 13 -26 22 -17 4 3 0 6 -8 6 -11 0 -11 2 1 10 9 6
10 10 3 10 -6 0 -14 -4 -18 -9z"/>
<path d="M3464 1705 c0 -93 2 -133 3 -88 2 45 2 122 0 170 -1 48 -3 12 -3 -82z"/>
<path d="M4963 1830 c0 -25 2 -35 4 -22 2 12 2 32 0 45 -2 12 -4 2 -4 -23z"/>
<path d="M4760 1803 c-14 -18 -19 -34 -15 -48 15 -45 18 -78 6 -71 -6 4 -11
15 -11 24 0 11 -3 13 -11 5 -19 -19 1 -63 32 -70 28 -5 29 -7 29 -70 0 -47 3
-64 13 -60 14 4 14 5 16 98 1 70 1 71 26 67 17 -4 25 -1 25 8 0 10 -9 12 -29
8 -20 -4 -30 -1 -34 10 -4 9 -3 15 1 15 41 -6 49 34 14 77 -15 19 -30 34 -34
34 -4 0 -16 -12 -28 -27z"/>
<path d="M4963 1710 c0 -41 2 -58 4 -37 2 20 2 54 0 75 -2 20 -4 3 -4 -38z"/>
<path d="M4725 1740 c-3 -5 -1 -10 4 -10 6 0 11 5 11 10 0 6 -2 10 -4 10 -3 0
-8 -4 -11 -10z"/>
<path d="M2150 1730 c20 -13 130 -13 130 0 0 6 -31 10 -72 10 -51 0 -68 -3
-58 -10z"/>
<path d="M2289 1678 c-5 -230 -4 -278 7 -278 7 0 14 7 18 15 3 8 2 15 -2 15
-4 0 -5 21 -3 47 2 27 4 92 4 146 l0 97 73 0 c43 0 74 4 74 10 0 6 -35 10 -85
10 l-85 0 -1 -62z"/>
<path d="M4688 1713 c7 -3 16 -2 19 1 4 3 -2 6 -13 5 -11 0 -14 -3 -6 -6z"/>
<path d="M1760 1676 c0 -5 27 -52 59 -106 33 -54 61 -106 63 -116 4 -21 29
-26 36 -6 2 7 -2 10 -12 6 -9 -3 -16 -1 -16 4 0 11 -105 198 -122 217 -4 5 -8
5 -8 1z"/>
<path d="M2652 1650 c0 -14 2 -19 5 -12 2 6 2 18 0 25 -3 6 -5 1 -5 -13z"/>
<path d="M5006 1631 c10 -37 33 -88 33 -71 0 8 -9 33 -20 55 -10 22 -16 29
-13 16z"/>
<path d="M4880 1575 c0 -25 4 -35 13 -33 18 7 20 43 2 58 -13 11 -15 8 -15
-25z"/>
<path d="M1715 1560 c3 -5 8 -10 11 -10 2 0 4 5 4 10 0 6 -5 10 -11 10 -5 0
-7 -4 -4 -10z"/>
<path d="M2733 1510 c0 -25 2 -35 4 -22 2 12 2 32 0 45 -2 12 -4 2 -4 -23z"/>
<path d="M1706 1458 c8 -28 19 -52 44 -98 11 -19 19 -47 20 -62 0 -14 6 -28
13 -31 9 -4 9 -7 -1 -18 -11 -12 -17 -10 -36 14 -12 15 -25 27 -29 27 -4 0 -7
-25 -7 -55 0 -42 3 -55 15 -55 8 0 15 7 15 15 0 8 6 15 14 15 8 0 16 3 19 8 2
4 3 2 1 -5 -3 -13 27 -43 43 -43 11 0 78 -180 103 -275 7 -27 18 -56 23 -63
14 -18 7 -21 -28 -14 -30 6 -30 6 -5 12 23 7 23 8 6 15 -13 6 -23 3 -30 -8 -7
-8 -28 -17 -47 -19 -23 -3 -11 -6 43 -12 69 -7 76 -10 81 -32 5 -28 7 -28 -68
-9 -44 12 -66 13 -88 5 -17 -5 -43 -10 -58 -10 -15 0 -31 -4 -34 -10 -3 -5
-11 -10 -17 -10 -27 0 17 29 50 33 33 3 31 4 -11 5 -27 1 -46 6 -43 11 3 4
-22 7 -57 6 -85 -3 -97 -6 -62 -15 27 -7 26 -8 -15 -9 -32 0 -41 2 -30 9 11 7
-3 10 -47 10 -34 0 -74 5 -90 12 -34 14 -143 27 -137 16 3 -4 29 -9 57 -10
l52 -1 -55 -7 c-30 -4 -47 -7 -38 -8 10 -1 22 -10 27 -19 8 -15 21 -18 88 -15
144 6 247 1 260 -11 3 -4 1 -7 -6 -7 -7 0 -9 -4 -6 -10 3 -5 -3 -11 -14 -11
-24 -2 -30 -3 -53 -13 -10 -4 -23 -6 -30 -3 -7 3 1 11 20 19 l34 15 -73 7
c-39 3 -74 4 -77 1 -3 -3 8 -5 24 -6 16 0 38 -4 49 -9 13 -6 -11 -8 -70 -8
-55 0 -78 3 -60 7 l30 7 -30 6 c-16 4 -31 2 -33 -3 -4 -11 -172 -11 -227 0
l-40 9 55 2 c30 1 47 4 38 7 -10 2 -18 8 -18 11 0 4 -66 8 -148 8 -81 1 -131
-2 -112 -5 28 -5 31 -8 17 -14 -10 -4 -28 -8 -40 -9 -12 0 -2 -4 23 -8 l45 -7
-45 -1 c-25 -1 -51 2 -58 7 -7 4 -25 5 -40 2 -21 -4 -11 -8 43 -17 l70 -13
-85 0 c-131 0 -186 -9 -130 -21 l35 -7 -37 -2 c-20 0 -39 3 -42 7 -3 5 -27 5
-53 1 -75 -12 -103 -11 -103 6 0 8 12 21 28 29 l27 15 -25 1 c-23 1 -24 2 -5
10 14 7 8 8 -20 4 -38 -6 -39 -5 -20 10 20 15 19 15 -6 16 -16 0 -29 -7 -33
-16 -9 -23 -8 -24 24 -24 17 0 30 -4 30 -9 0 -10 -73 -21 -137 -21 -36 0 -46
-4 -50 -20 -4 -14 -14 -20 -37 -21 -43 -2 -120 -7 -126 -9 -3 -1 4 -6 15 -11
16 -7 14 -8 -10 -3 -16 3 -57 7 -90 8 -36 2 -40 1 -10 -1 28 -2 55 -9 60 -15
7 -7 -9 -8 -51 -3 -53 6 -61 4 -61 -10 0 -26 43 -36 177 -40 78 -3 112 -1 90
4 -32 8 -29 9 25 10 33 1 67 6 75 11 10 7 -21 10 -97 10 -61 0 -114 -4 -117
-9 -4 -5 2 -7 13 -4 10 3 22 0 25 -6 9 -14 -43 -15 -64 -1 -11 7 -9 11 12 19
34 13 100 26 115 23 7 -2 22 2 33 8 11 6 32 7 47 4 25 -7 25 -8 8 -15 -20 -7
-20 -8 0 -7 11 0 31 4 45 8 l25 8 -25 1 c-14 1 -32 5 -39 10 -10 7 0 9 31 8
25 -1 44 -5 42 -8 -6 -10 83 -19 103 -12 15 6 12 9 -12 14 -25 6 88 4 195 -3
14 -1 54 2 89 7 47 6 62 5 57 -4 -5 -8 7 -11 41 -12 38 -1 43 -3 23 -9 -14 -4
-66 -5 -115 -2 -72 4 -98 1 -122 -12 -33 -17 -143 -23 -143 -7 0 4 24 7 52 5
46 -3 49 -3 23 6 -35 12 -120 4 -187 -17 -47 -15 -56 -33 -17 -33 11 0 18 -4
15 -9 -12 -19 -152 -24 -248 -8 -117 20 -181 27 -174 19 4 -3 25 -9 49 -13
l42 -6 -47 -2 c-27 0 -48 -4 -48 -8 0 -5 48 -9 108 -9 196 -3 212 -4 212 -14
0 -6 -48 -8 -122 -7 -68 2 -109 0 -93 -4 27 -6 27 -7 5 -7 -14 -1 -44 3 -67 7
-34 7 -43 5 -43 -5 0 -19 19 -20 122 -9 39 4 58 3 58 -4 0 -7 -22 -11 -52 -11
-78 0 -128 -11 -128 -26 0 -8 6 -14 13 -14 9 0 8 -3 -2 -9 -8 -5 4 -9 35 -9
37 -1 45 1 34 9 -12 9 -12 10 3 5 10 -3 32 -6 48 -6 16 0 29 -4 29 -10 0 -6
-33 -10 -80 -10 -63 0 -80 -3 -80 -14 0 -8 12 -17 28 -19 l27 -4 -27 -2 c-37
-1 -37 -28 -1 -34 l28 -4 -27 -2 c-18 0 -28 -7 -28 -16 0 -12 16 -15 78 -16
l77 -2 -80 -11 c-48 -7 -72 -14 -60 -18 17 -5 17 -6 3 -7 -11 -1 -18 -9 -18
-22 0 -19 4 -20 35 -15 44 9 204 9 241 1 20 -5 25 -4 15 3 -9 6 38 8 135 6
237 -6 366 -12 373 -19 3 -4 -156 -4 -354 -2 -198 3 -379 3 -402 0 -42 -6 -43
-6 -43 -44 l0 -39 113 -1 112 -2 -75 -8 c-41 -5 -92 -7 -112 -4 l-38 5 0 -55
0 -55 43 -2 42 -1 -45 -7 c-25 -3 1333 -7 3018 -8 l3062 -2 0 29 c0 25 -5 30
-27 34 l-28 4 28 2 c24 1 27 5 27 35 0 19 -6 37 -12 39 -10 4 -10 6 0 6 8 1
12 23 12 76 l0 75 -42 -1 -43 -2 40 -7 c38 -7 37 -7 -20 -9 -33 -1 -78 -4
-100 -7 -30 -4 -36 -3 -25 5 13 10 13 11 0 12 -37 3 52 17 118 18 63 1 72 3
72 20 0 17 -7 18 -97 14 -54 -3 -114 -1 -133 5 -31 9 -28 10 35 9 39 0 98 0
133 1 l62 2 0 45 0 45 -107 1 c-61 1 -97 4 -83 8 l25 7 -25 7 c-14 4 -41 6
-60 6 l-35 -2 35 -7 35 -7 -32 -2 c-17 0 -35 4 -38 9 -3 6 -25 10 -47 10 -23
0 -39 3 -35 6 9 9 207 5 226 -5 9 -5 44 -12 79 -16 59 -7 62 -6 62 14 0 17 -5
21 -25 17 -14 -3 -25 0 -25 5 0 5 11 9 25 9 22 0 25 4 25 36 l0 37 -50 -5
c-27 -3 -50 -2 -50 2 0 4 -51 8 -112 9 -62 1 -123 2 -135 3 -40 4 -10 15 52
21 37 3 51 2 35 -3 -20 -7 -21 -8 -5 -9 11 0 40 4 65 9 25 4 50 5 55 0 6 -4
42 -8 80 -8 l70 -1 -60 15 c-33 9 -84 14 -113 11 -34 -2 -48 0 -40 5 8 6 -15
8 -62 5 -41 -3 -100 -2 -130 2 l-55 8 57 2 c31 0 64 4 74 8 12 4 15 3 10 -5
-8 -13 6 -16 18 -5 4 4 40 7 79 6 l72 -1 -80 9 c-44 6 -107 8 -140 5 -33 -3
-52 -2 -43 2 33 13 3 36 -44 35 -24 -1 -34 1 -23 4 11 3 25 12 31 21 9 12 22
14 70 7 32 -5 82 -9 109 -8 38 1 45 -1 30 -8 -13 -6 10 -8 70 -6 80 3 85 2 42
-7 -69 -14 -53 -31 31 -32 39 0 69 3 66 8 -3 4 -16 8 -30 8 -16 0 -23 4 -18
11 4 7 21 9 40 6 19 -3 34 -2 34 4 0 5 -9 9 -20 9 -11 0 -20 4 -20 9 0 5 -24
9 -52 9 -29 0 -80 0 -113 0 -33 0 -64 0 -70 1 -5 1 -50 5 -98 10 -48 5 -91 12
-95 16 -4 4 16 5 44 2 33 -4 55 -2 63 6 9 9 14 8 21 -3 7 -12 12 -12 22 -2 6
6 26 12 43 13 l30 1 -34 8 c-18 4 -47 4 -65 -1 -17 -5 -40 -9 -51 -8 -17 1
-16 2 5 9 l25 8 -28 1 c-16 1 -26 5 -22 11 7 11 -9 12 -90 11 -93 -2 -155 -13
-148 -25 3 -6 0 -6 -8 2 -7 6 -31 12 -53 12 -73 0 -32 8 74 15 130 8 177 18
196 42 16 21 36 84 29 92 -3 2 -5 0 -5 -5 0 -5 -35 -10 -78 -12 -54 -1 -90 -8
-117 -22 -22 -11 -48 -20 -58 -20 -11 0 -15 -4 -11 -12 5 -8 -2 -9 -24 -5 -22
5 -32 3 -32 -6 0 -8 -4 -7 -10 3 -5 8 -10 11 -11 5 0 -5 -4 -1 -9 10 -7 17 -9
17 -9 3 -1 -11 -9 -18 -21 -18 -13 0 -20 -7 -20 -20 0 -11 -4 -20 -9 -20 -5 0
-7 8 -4 19 4 15 0 18 -22 13 -19 -3 -23 -7 -14 -13 21 -13 9 -17 -61 -23 -59
-5 -61 -4 -17 4 27 5 52 12 55 15 4 4 -8 4 -25 0 -28 -5 -33 -4 -33 12 -1 17
-1 17 -14 1 -8 -11 -27 -18 -47 -19 -31 -1 -32 -2 -9 -8 18 -6 3 -10 -55 -14
-122 -10 -465 -28 -507 -26 -38 2 -50 13 -25 22 6 3 -1 4 -18 2 -16 -1 -36 -3
-42 -4 -7 0 -13 -8 -13 -16 0 -12 -18 -15 -98 -15 -55 0 -155 -2 -223 -4
l-124 -5 110 9 c61 6 153 11 206 12 135 4 99 18 -46 18 -152 0 -316 11 -310
20 4 7 -110 19 -250 27 -310 17 -310 17 -309 35 1 10 -8 20 -19 24 l-22 7 23
8 c28 11 29 31 0 27 -12 -2 -29 -17 -39 -38 -18 -34 -21 -35 -64 -32 -36 3
-43 7 -35 17 6 7 20 11 30 8 11 -3 28 -2 37 2 17 6 17 7 -1 20 -13 10 -24 11
-38 4 -13 -7 -24 -6 -38 4 -27 19 -14 29 27 21 27 -5 39 -2 58 16 15 14 25 18
30 11 3 -6 27 -10 53 -10 33 2 38 3 18 6 -20 3 -25 7 -17 13 8 4 -29 12 -85
19 -283 34 -592 67 -789 86 -22 2 -60 7 -85 9 -40 5 -42 4 -20 -6 14 -7 27
-15 30 -19 3 -3 20 -11 38 -17 27 -9 32 -9 32 5 0 9 2 14 5 12 7 -7 -12 -126
-31 -191 -14 -47 -21 -57 -43 -61 -14 -3 -27 -1 -29 4 -10 28 -92 -5 -92 -37
0 -5 -25 -7 -55 -6 -30 2 -53 8 -49 13 3 5 -4 9 -15 9 -12 0 -21 6 -21 13 0
13 -38 28 -103 42 -15 3 -25 10 -22 15 3 6 2 10 -4 10 -18 0 -33 39 -23 57 7
12 5 21 -6 32 -14 15 -14 16 7 19 13 2 28 -1 34 -7 13 -13 30 -15 22 -2 -3 5
0 13 6 17 17 10 -18 34 -49 34 -13 0 -20 4 -17 10 3 6 15 10 26 10 26 0 24 26
-3 33 -31 9 -17 18 49 32 l58 13 -55 1 c-61 2 -115 23 -86 34 27 11 19 37 -11
37 l-28 1 28 15 c34 19 34 29 0 46 -17 8 -28 21 -28 33 0 13 -10 22 -32 29
-18 5 -33 13 -33 17 0 4 -11 20 -24 34 -17 18 -26 22 -31 14 -6 -8 -11 -6 -18
6 -8 14 -11 15 -18 4 -7 -10 -8 -6 -4 12 4 17 2 26 -7 26 -7 0 -22 4 -33 9
-19 7 -19 7 -2 -13 19 -21 23 -53 7 -53 -5 0 -10 7 -10 15 0 22 -37 55 -61 55
-17 0 -19 -4 -13 -22z m44 -10 c0 -7 -5 -20 -10 -28 -8 -12 -10 -9 -10 13 0
15 5 27 10 27 6 0 10 -6 10 -12z m220 -138 c7 -14 7 -20 0 -20 -5 0 -10 5 -10
11 0 7 -12 8 -32 4 l-33 -6 25 15 c33 20 37 20 50 -4z m-104 -31 c1 -8 2 -19
3 -26 1 -8 12 -10 34 -6 24 3 37 0 47 -13 14 -16 12 -17 -40 -11 -41 5 -50 4
-37 -3 9 -6 17 -18 17 -26 0 -9 -7 -14 -17 -12 -14 3 -18 14 -18 56 0 49 -8
67 -18 40 -3 -10 -8 -10 -21 1 -12 11 -14 16 -5 22 16 10 54 -5 55 -22z m51
-4 c0 -8 -9 -15 -19 -15 -16 0 -17 2 -6 15 17 19 25 19 25 0z m-101 -39 c0
-19 -4 -32 -8 -28 -13 14 -13 62 1 62 4 0 8 -16 7 -34z m159 6 c-3 -3 -11 0
-18 7 -9 10 -8 11 6 5 10 -3 15 -9 12 -12z m532 -148 c-3 -3 -12 -4 -19 -1 -8
3 -5 6 6 6 11 1 17 -2 13 -5z m73 -14 c-24 -8 -23 -8 8 -9 17 -1 32 -6 32 -12
0 -7 13 -9 38 -5 20 4 44 2 52 -4 11 -7 2 -10 -35 -11 -27 0 -61 -5 -75 -9
l-25 -8 25 -2 c14 -2 44 -2 68 0 26 1 52 -4 67 -14 13 -9 33 -16 45 -16 11 0
20 -4 20 -10 0 -5 -5 -10 -12 -10 -9 0 -9 -3 -1 -11 7 -7 26 -8 55 -4 l43 8
-30 13 -30 13 27 1 c23 0 27 4 25 23 -2 19 2 22 33 21 19 0 58 -4 85 -8 36 -5
46 -5 35 3 -9 7 -10 11 -3 11 6 0 14 -4 17 -9 3 -4 24 -11 46 -15 22 -3 40
-10 40 -15 0 -6 -13 -6 -32 0 -51 14 -66 11 -39 -8 14 -9 47 -17 80 -18 30 -1
57 -7 59 -13 4 -13 -71 -22 -79 -9 -4 5 -9 5 -14 -2 -4 -7 -2 -18 5 -26 12
-15 -3 -31 -20 -20 -14 9 -50 -13 -45 -28 4 -9 -21 -11 -112 -5 -65 3 -121 7
-125 7 -5 1 -8 10 -8 20 0 14 -5 18 -20 14 -10 -3 -18 -10 -17 -17 1 -7 -33
-12 -110 -14 -99 -2 -113 -5 -114 -20 -1 -11 -4 -8 -9 8 -7 21 -8 22 -10 5 -1
-18 -2 -17 -11 4 -6 16 -6 28 1 35 5 5 10 22 10 37 0 15 4 30 10 34 5 3 7 12
3 20 -3 8 0 15 6 15 6 0 11 13 11 28 0 34 7 42 34 41 18 -1 18 -2 -4 -9z m225
-40 c-3 -5 -15 -10 -26 -10 -11 0 -17 5 -14 10 3 6 15 10 26 10 11 0 17 -4 14
-10z m405 -20 c0 -5 -5 -10 -11 -10 -5 0 -7 5 -4 10 3 6 8 10 11 10 2 0 4 -4
4 -10z m-1200 -71 c0 -5 -4 -9 -10 -9 -5 0 -10 7 -10 16 0 8 5 12 10 9 6 -3
10 -10 10 -16z m1210 -23 c0 -16 -27 -29 -41 -20 -15 9 -10 22 9 27 29 8 32 7
32 -7z m2130 -126 c11 -7 2 -10 -32 -10 -29 0 -48 -5 -48 -11 0 -8 18 -10 60
-5 37 4 60 3 60 -3 0 -5 8 -12 18 -15 9 -3 -21 -3 -67 0 -46 2 -91 9 -100 15
-14 9 -14 10 2 5 9 -3 17 -1 17 4 0 6 -9 10 -20 10 -11 0 -20 -7 -20 -15 0
-19 -32 -35 -67 -34 l-28 1 30 13 c17 8 23 14 13 15 -9 0 -18 4 -20 9 -4 11
-148 -9 -148 -21 0 -4 6 -6 13 -3 6 2 41 6 77 8 36 3 57 3 48 0 -10 -2 -18 -9
-18 -15 0 -5 -7 -7 -16 -4 -8 3 -12 2 -9 -4 3 -6 3 -10 -2 -11 -4 0 -17 -2
-27 -4 -10 -2 -25 3 -33 10 -7 8 -22 12 -34 10 -11 -2 -22 2 -25 10 -4 11 -11
12 -23 5 -10 -5 -29 -7 -42 -4 -21 4 -22 3 -4 -5 19 -9 19 -10 -2 -10 -13 -1
-23 5 -23 12 0 9 -34 12 -137 11 -76 0 -152 -4 -170 -8 -19 -4 -34 -3 -38 3
-3 6 -3 11 2 11 4 0 94 3 198 5 105 3 251 10 325 15 74 6 155 12 180 14 25 1
56 3 70 4 14 1 32 -3 40 -8z m-3688 -26 c-12 -8 -28 -12 -34 -8 -9 6 -5 10 12
15 41 11 46 10 22 -7z m3783 6 c3 -5 -3 -10 -14 -10 -11 0 -23 5 -26 10 -3 6
3 10 14 10 11 0 23 -4 26 -10z m-4028 -6 c-3 -3 -12 -4 -19 -1 -8 3 -5 6 6 6
11 1 17 -2 13 -5z m4117 -2 c3 -4 -11 -9 -31 -9 -25 -1 -32 2 -22 8 18 11 46
12 53 1z m83 2 c-3 -3 -12 -4 -19 -1 -8 3 -5 6 6 6 11 1 17 -2 13 -5z m-4602
-14 l-20 -9 20 -1 c11 -2 25 -2 30 -1 6 1 1 -6 -10 -15 -19 -15 -18 -16 24 -9
31 5 42 4 37 -4 -4 -6 -3 -11 3 -11 5 0 13 5 16 10 4 6 11 8 16 4 6 -3 44 -5
86 -5 94 1 126 -6 118 -26 -4 -12 0 -14 18 -9 13 3 36 2 52 -3 27 -7 24 -8
-20 -9 -27 0 -56 4 -63 10 -9 8 -23 8 -50 0 -20 -6 -47 -9 -59 -6 -12 3 -30 1
-40 -5 -15 -10 -13 -11 14 -6 18 4 34 2 38 -4 3 -6 34 -11 68 -11 78 -1 57
-15 -33 -23 -36 -3 -56 -2 -45 2 15 6 7 9 -30 14 -28 3 -54 2 -60 -3 -5 -4
-38 -7 -71 -8 -34 0 -77 -3 -95 -6 l-34 -6 30 14 c24 12 26 15 10 16 l-20 1
20 8 c11 5 20 14 20 22 0 9 17 16 50 20 l50 6 -57 1 c-31 1 -60 -2 -63 -8 -3
-5 -15 -10 -26 -10 -36 0 -14 25 32 36 34 9 40 13 26 19 -15 6 -16 10 -5 16 7
5 20 8 28 8 10 0 8 -3 -5 -9z m3505 2 c0 -11 -150 -31 -189 -25 -31 5 -33 4
-27 -18 3 -13 3 -18 0 -11 -3 6 -23 12 -45 12 -24 0 -38 4 -34 10 8 13 -1 13
-26 -1 -14 -7 -24 -7 -33 0 -11 9 -37 7 -76 -6 -8 -3 -91 -7 -185 -10 -219 -7
-225 -7 -225 -13 0 -7 -187 -6 -194 1 -4 3 92 11 211 18 120 6 261 13 313 16
52 3 177 9 277 14 100 4 186 10 189 14 10 10 44 9 44 -1z m930 -23 c0 -5 -13
-9 -30 -9 -16 0 -30 -4 -30 -10 0 -5 11 -10 24 -10 13 0 26 -7 30 -15 6 -17
-9 -21 -19 -5 -3 6 -17 10 -31 10 -13 0 -24 5 -24 10 0 7 -6 7 -19 0 -11 -5
-28 -10 -38 -9 -15 0 -14 2 5 9 38 16 24 23 -31 16 -55 -7 -91 0 -81 15 3 5
12 9 20 9 8 0 13 -4 10 -8 -6 -11 176 -2 188 9 10 9 26 3 26 -12z m-3719 -8
l-22 -19 23 -5 c13 -2 3 -5 -22 -6 -33 -1 -41 -4 -30 -11 11 -7 3 -10 -30 -10
-52 0 -82 13 -55 24 9 3 28 6 41 6 13 0 24 5 24 10 0 6 10 10 23 10 12 0 29 5
37 10 26 17 34 11 11 -9z m124 9 c-3 -5 -25 -9 -48 -9 -40 1 -40 2 -12 9 44
11 67 11 60 0z m2885 -2 c0 -4 -7 -8 -16 -8 -10 0 -14 -6 -11 -14 3 -8 1 -17
-6 -20 -7 -3 -1 -3 13 1 69 17 90 20 90 12 0 -6 18 -9 40 -7 22 1 40 3 40 5 0
2 -15 12 -32 23 -38 23 -21 27 22 5 16 -8 36 -12 44 -9 9 4 22 2 29 -4 19 -16
172 -28 163 -14 -5 8 5 12 31 11 21 -1 29 -3 18 -6 -11 -2 -27 -7 -35 -11 -8
-4 -64 -7 -125 -7 -60 0 -149 -4 -196 -9 -117 -12 -258 7 -256 34 1 10 4 17 7
15 3 -2 12 0 20 5 19 12 160 10 160 -2z m53 5 c-7 -2 -19 -2 -25 0 -7 3 -2 5
12 5 14 0 19 -2 13 -5z m174 1 c-3 -3 -12 -4 -19 -1 -8 3 -5 6 6 6 11 1 17 -2
13 -5z m-3072 -14 c-19 -7 -18 -8 5 -13 14 -3 38 -5 54 -4 17 1 31 -4 34 -12
3 -9 -1 -11 -17 -6 -12 4 -21 2 -21 -4 0 -6 -15 -11 -32 -10 -28 0 -30 2 -13
9 29 12 -2 12 -46 0 -28 -8 -44 -7 -70 5 l-34 16 59 -6 c44 -5 56 -4 51 5 -8
14 12 30 35 29 10 0 8 -3 -5 -9z m2605 0 c4 0 10 -9 13 -20 4 -15 0 -20 -13
-20 -10 0 -25 -3 -34 -6 -9 -3 -16 -1 -16 5 0 6 9 11 20 11 25 0 26 15 3 30
-17 11 -17 11 0 6 10 -3 22 -6 27 -6z m40 0 c0 -5 -5 -10 -11 -10 -5 0 -7 5
-4 10 3 6 8 10 11 10 2 0 4 -4 4 -10z m-130 -10 c-13 -9 -13 -10 1 -10 8 0 19
4 25 10 5 5 15 6 23 0 10 -6 4 -11 -25 -19 -21 -6 -45 -11 -51 -11 -19 0 -16
17 5 29 22 13 42 14 22 1z m355 0 c-11 -5 -27 -9 -35 -9 -13 -1 -13 0 0 9 8 5
24 9 35 9 l20 0 -20 -9z m258 3 c-7 -2 -21 -2 -30 0 -10 3 -4 5 12 5 17 0 24
-2 18 -5z m590 -10 c-7 -2 -19 -2 -25 0 -7 3 -2 5 12 5 14 0 19 -2 13 -5z
m-4173 -7 c0 -2 -7 -7 -16 -10 -8 -3 -12 -2 -9 4 6 10 25 14 25 6z m2830 -7
c-14 -6 -28 -17 -33 -25 -4 -8 -16 -14 -25 -14 -9 0 -26 -7 -36 -15 -25 -19
-56 -19 -81 2 -18 14 -18 15 -2 9 46 -15 70 -19 63 -8 -8 13 1 19 39 23 32 4
50 20 34 30 -5 3 7 6 28 7 35 0 36 0 13 -9z m970 7 c0 -2 -11 -6 -25 -8 -13
-3 -22 -1 -19 3 5 9 44 13 44 5z m-4341 -10 c-2 -2 -35 -6 -74 -9 -41 -3 -60
-2 -45 3 25 8 127 13 119 6z m584 -3 c-7 -2 -19 -2 -25 0 -7 3 -2 5 12 5 14 0
19 -2 13 -5z m1910 -1 c3 -4 -47 -8 -111 -8 -210 -2 -516 -13 -562 -21 -25 -4
-87 -7 -138 -7 -50 -1 -92 -4 -92 -7 0 -3 -93 -6 -208 -7 -114 -1 -243 -7
-287 -13 -44 -6 -125 -14 -180 -17 -80 -5 -92 -7 -60 -13 l40 -6 -41 -2 c-22
0 -49 6 -60 14 -23 18 -55 19 -89 3 -22 -10 -28 -9 -35 2 -6 9 -4 17 3 22 19
12 34 9 17 -3 -12 -9 -11 -9 5 -4 42 15 52 16 107 7 31 -5 62 -6 69 -2 13 9
-74 23 -134 22 -64 -1 -28 15 48 22 46 4 63 3 50 -3 -18 -8 -16 -10 10 -11 17
0 39 -7 49 -15 11 -8 38 -15 60 -15 30 0 37 3 26 10 -17 11 -13 12 120 15 169
4 489 15 695 26 380 18 691 23 698 11z m952 -2 c3 -5 26 -10 51 -10 31 0 43
-3 38 -11 -5 -8 1 -10 20 -7 15 3 24 2 19 -2 -4 -4 -35 -10 -68 -13 -34 -4
-51 -3 -40 2 17 7 15 9 -15 16 -19 5 -48 7 -65 6 -35 -2 -23 15 15 22 14 2 28
5 32 6 4 0 10 -3 13 -9z m-2809 -15 c-4 -11 2 -15 22 -16 24 -2 24 -2 4 -6
-12 -2 -20 -8 -17 -12 7 -12 -69 -29 -150 -34 l-70 -5 40 14 c22 8 46 12 54 9
8 -3 35 -3 60 1 41 6 43 8 21 16 -13 5 -38 6 -54 3 -29 -5 -29 -4 -7 5 14 6
39 8 55 5 23 -5 27 -4 16 4 -8 6 -28 11 -45 12 -30 2 -30 2 5 9 59 12 73 11
66 -5z m2590 -13 c-4 -3 -14 2 -24 12 -16 18 -16 18 6 6 13 -6 21 -14 18 -18z
m487 22 c40 -7 55 -40 18 -40 -11 0 -18 3 -15 7 2 4 -13 14 -34 22 -40 17 -30
21 31 11z m358 -3 c-11 -7 -10 -10 5 -14 14 -4 12 -5 -5 -4 -32 3 -40 27 -9
27 17 0 19 -3 9 -9z m-4028 -8 c-13 -2 -35 -2 -50 0 -16 2 -5 4 22 4 28 0 40
-2 28 -4z m3618 -20 c5 -5 -6 -7 -26 -5 -19 2 -37 7 -39 11 -7 10 55 4 65 -6z
m209 -4 l25 -7 -27 -1 c-14 -1 -34 -4 -44 -8 -13 -5 -15 -3 -9 7 6 10 4 12 -9
7 -11 -5 -15 -3 -10 5 5 8 2 9 -10 5 -10 -4 -15 -3 -11 3 6 9 43 5 95 -11z
m37 15 c-3 -3 -12 -4 -19 -1 -8 3 -5 6 6 6 11 1 17 -2 13 -5z m73 -4 c-11 -7
-2 -10 33 -10 26 0 47 -4 47 -10 0 -13 -102 -3 -115 12 -7 8 -6 9 2 4 6 -3 14
-2 18 4 3 5 12 10 18 10 7 0 6 -4 -3 -10z m511 1 c-11 -7 -9 -10 10 -14 13 -2
7 -4 -13 -3 -21 0 -38 5 -38 10 0 4 -29 6 -64 4 -36 -2 -62 0 -60 4 3 4 44 8
92 8 55 0 82 -4 73 -9z m262 -29 c-5 -12 -7 -12 -15 2 -11 20 1 44 12 25 5 -6
6 -19 3 -27z m-208 -1 c-6 -4 -32 -11 -60 -15 -34 -4 -45 -3 -35 4 8 5 32 10
54 10 32 0 37 3 31 18 -5 14 -4 15 6 5 8 -8 9 -16 4 -22z m-1378 13 c-3 -3
-12 -4 -19 -1 -8 3 -5 6 6 6 11 1 17 -2 13 -5z m223 -6 c0 -4 -20 -7 -45 -6
-25 0 -45 4 -45 9 0 4 20 7 45 6 25 -1 45 -5 45 -9z m537 6 c-3 -3 -12 -4 -19
-1 -8 3 -5 6 6 6 11 1 17 -2 13 -5z m173 -4 c12 -8 11 -10 -7 -10 -13 0 -23 5
-23 10 0 13 11 13 30 0z m127 4 c-3 -3 -12 -4 -19 -1 -8 3 -5 6 6 6 11 1 17
-2 13 -5z m-1149 -11 c-10 -2 -26 -2 -35 0 -10 3 -2 5 17 5 19 0 27 -2 18 -5z
m562 3 c0 -2 -13 -6 -30 -8 -16 -3 -30 -1 -30 4 0 4 14 8 30 8 17 0 30 -2 30
-4z m-3703 -20 c3 -2 -15 -7 -39 -10 -23 -3 -90 -12 -148 -20 l-105 -15 88 1
c48 1 106 4 127 8 21 4 43 3 48 -2 5 -5 31 -13 58 -17 41 -7 29 -9 -76 -12
-153 -4 -157 -4 -250 14 -58 12 -67 15 -37 16 21 1 36 5 33 10 -3 4 34 11 83
13 48 3 96 10 106 15 17 10 102 9 112 -1z m343 4 c12 -8 10 -10 -10 -9 -14 1
-36 1 -50 0 -20 -1 -22 -3 -10 -11 19 -12 -63 -12 -130 -1 l-45 8 65 3 c36 1
79 6 95 10 44 11 68 11 85 0z m3240 -11 c0 -5 15 -10 33 -10 24 -1 26 -3 9 -6
-13 -3 -31 -1 -40 3 -20 8 -33 10 -85 12 -21 1 -36 5 -34 10 7 10 117 2 117
-9z m235 11 c-11 -5 -35 -9 -53 -9 -19 -1 -31 -5 -27 -11 7 -11 -38 -24 -57
-17 -7 3 -3 6 10 6 12 1 30 9 40 19 12 12 34 19 63 20 33 0 39 -2 24 -8z m218
3 c-7 -2 -21 -2 -30 0 -10 3 -4 5 12 5 17 0 24 -2 18 -5z m858 -3 c5 0 9 -4 9
-10 0 -14 -13 -12 -36 6 -17 14 -17 15 -1 10 10 -3 23 -6 28 -6z m-5674 -6
c-3 -3 -12 -4 -19 -1 -8 3 -5 6 6 6 11 1 17 -2 13 -5z m850 -5 c-11 -7 -23 -7
-28 -2 -5 5 3 9 19 11 24 1 25 0 9 -9z m3348 -17 c-6 -7 -34 11 -29 19 3 5 11
3 19 -4 7 -6 12 -13 10 -15z m212 22 c-3 -3 -12 -4 -19 -1 -8 3 -5 6 6 6 11 1
17 -2 13 -5z m246 -1 c-7 -2 -19 -2 -25 0 -7 3 -2 5 12 5 14 0 19 -2 13 -5z
m60 0 c-7 -2 -21 -2 -30 0 -10 3 -4 5 12 5 17 0 24 -2 18 -5z m264 1 c-3 -3
-12 -4 -19 -1 -8 3 -5 6 6 6 11 1 17 -2 13 -5z m216 -1 c-7 -2 -21 -2 -30 0
-10 3 -4 5 12 5 17 0 24 -2 18 -5z m70 0 c-7 -2 -19 -2 -25 0 -7 3 -2 5 12 5
14 0 19 -2 13 -5z m-3650 -10 c-7 -2 -21 -2 -30 0 -10 3 -4 5 12 5 17 0 24 -2
18 -5z m290 0 c-7 -2 -21 -2 -30 0 -10 3 -4 5 12 5 17 0 24 -2 18 -5z m2142
-1 c22 -4 36 -10 30 -13 -5 -3 -32 0 -60 7 -55 13 -34 17 30 6z m1015 4 c0
-11 -19 -15 -25 -6 -3 5 1 10 9 10 9 0 16 -2 16 -4z m287 -2 c-3 -3 -12 -4
-19 -1 -8 3 -5 6 6 6 11 1 17 -2 13 -5z m241 -1 c-10 -2 -26 -2 -35 0 -10 3
-2 5 17 5 19 0 27 -2 18 -5z m-4643 -20 c107 -7 113 -8 60 -13 -73 -6 -216 7
-230 22 -7 7 -1 8 20 5 17 -3 84 -9 150 -14z m240 10 c-35 -3 -45 -7 -35 -13
11 -7 7 -10 -17 -10 -17 0 -38 -3 -47 -6 -9 -3 -16 -1 -16 5 0 6 8 11 18 12
14 0 14 2 -3 9 -13 6 10 8 65 7 53 0 66 -2 35 -4z m355 -3 l55 -7 -55 -1 c-30
0 -80 3 -110 8 l-55 7 55 1 c30 0 80 -3 110 -8z m3557 4 c-3 -3 -12 -4 -19 -1
-8 3 -5 6 6 6 11 1 17 -2 13 -5z m223 -4 c30 -4 44 -8 30 -10 l-25 -2 25 -8
c24 -8 23 -8 -7 -9 -18 -1 -33 3 -33 7 0 9 -49 16 -109 15 -28 0 -38 2 -30 8
16 10 72 10 149 -1z m-3457 -7 c-13 -2 -23 -9 -23 -14 0 -5 -37 -10 -82 -11
-80 -1 -81 -2 -28 -8 l55 -7 -45 -1 c-62 -2 -120 8 -120 22 0 7 37 12 107 14
59 2 110 5 112 8 2 2 14 3 25 3 19 -2 19 -2 -1 -6z m2455 1 c18 -5 20 -9 11
-20 -6 -8 -17 -14 -23 -14 -6 0 -4 5 4 10 8 5 11 10 5 11 -36 3 -68 9 -73 13
-7 8 47 7 76 0z m271 -3 c12 -8 9 -11 -12 -17 -16 -3 -31 -4 -34 0 -4 3 5 6
18 6 19 0 21 2 9 10 -8 5 -10 10 -5 10 6 0 17 -4 24 -9z m1074 2 c-13 -2 -33
-2 -45 0 -13 2 -3 4 22 4 25 0 35 -2 23 -4z m-4395 -14 l27 -1 -30 -9 c-16 -5
-37 -6 -46 -4 -9 3 -24 -1 -32 -10 -9 -8 -28 -14 -44 -14 l-28 2 30 5 c29 6
29 6 -10 12 l-40 7 52 2 c28 0 55 6 58 12 4 6 14 8 22 5 8 -3 27 -6 41 -7z
m97 1 c-3 -5 -21 -10 -38 -10 -24 0 -28 3 -17 10 20 13 63 13 55 0z m3282 4
c-3 -3 -12 -4 -19 -1 -8 3 -5 6 6 6 11 1 17 -2 13 -5z m240 0 c-3 -3 -12 -4
-19 -1 -8 3 -5 6 6 6 11 1 17 -2 13 -5z m-3462 -18 c-69 -17 -194 -28 -175
-16 8 5 41 10 73 10 31 0 57 5 57 10 0 6 21 10 48 9 l47 -1 -50 -12z m172 8
c-3 -3 -12 -4 -19 -1 -8 3 -5 6 6 6 11 1 17 -2 13 -5z m2373 -10 c0 -2 -12 -4
-26 -4 -14 0 -23 4 -20 9 6 8 46 4 46 -5z m420 11 c0 -2 -9 -9 -20 -15 -12 -6
-20 -7 -20 -1 0 5 8 12 18 14 9 3 18 5 20 6 1 0 2 -1 2 -4z m960 -23 l35 -10
-33 -1 c-18 -1 -31 -5 -28 -9 5 -9 -100 1 -110 10 -3 4 20 4 52 1 42 -5 55 -3
50 5 -4 7 -35 12 -74 13 -39 0 -59 3 -49 8 20 7 99 -1 157 -17z m423 21 c-7
-2 -21 -2 -30 0 -10 3 -4 5 12 5 17 0 24 -2 18 -5z m-5360 -10 c-7 -2 -21 -2
-30 0 -10 3 -4 5 12 5 17 0 24 -2 18 -5z m588 -4 c-35 -4 -80 -5 -100 0 -26 5
-9 8 64 8 96 0 98 0 36 -8z m2616 5 c-3 -3 -12 -4 -19 -1 -8 3 -5 6 6 6 11 1
17 -2 13 -5z m56 -1 c-7 -2 -19 -2 -25 0 -7 3 -2 5 12 5 14 0 19 -2 13 -5z
m1137 3 c0 -2 -18 -6 -40 -8 -22 -2 -40 0 -40 4 0 5 18 8 40 8 22 0 40 -2 40
-4z m743 -3 c-7 -2 -19 -2 -25 0 -7 3 -2 5 12 5 14 0 19 -2 13 -5z m140 0 c-7
-2 -21 -2 -30 0 -10 3 -4 5 12 5 17 0 24 -2 18 -5z m301 -2 c-3 -3 -35 -11
-72 -17 l-67 -12 75 -1 c53 -1 71 -4 60 -11 -8 -6 -33 -7 -55 -4 -22 4 -97 7
-166 7 -70 -1 -133 3 -140 8 -15 10 23 13 103 9 50 -2 91 7 84 18 -2 4 38 7
89 7 52 1 92 -2 89 -4z m-5511 -8 c-7 -2 -21 -2 -30 0 -10 3 -4 5 12 5 17 0
24 -2 18 -5z m4007 -9 c0 -2 -12 -4 -27 -4 -21 0 -24 3 -14 9 13 8 41 5 41 -5z
m120 2 c8 -2 -14 -4 -50 -5 -36 0 -59 3 -53 7 12 7 65 6 103 -2z m841 -3 c13
-15 12 -15 -8 -4 -24 12 -29 21 -14 21 5 0 15 -7 22 -17z m-4628 0 c-13 -2
-33 -2 -45 0 -13 2 -3 4 22 4 25 0 35 -2 23 -4z m260 0 c-7 -2 -21 -2 -30 0
-10 3 -4 5 12 5 17 0 24 -2 18 -5z m-550 -10 c-45 -2 -122 -2 -170 0 -48 1
-11 3 82 3 94 0 133 -2 88 -3z m502 -3 c39 -6 24 -7 -67 -7 -65 0 -118 4 -118
8 0 11 116 10 185 -1z m192 4 c-3 -3 -12 -4 -19 -1 -8 3 -5 6 6 6 11 1 17 -2
13 -5z m273 -5 c-12 -8 -8 -10 15 -6 17 2 41 1 55 -3 14 -4 -58 -8 -160 -8
-102 -1 -203 -7 -225 -12 -22 -5 -51 -9 -65 -9 -22 0 -23 1 -7 10 9 5 86 15
169 20 84 6 155 12 157 15 2 2 20 4 40 4 28 0 33 -3 21 -11z m177 5 c-3 -3
-12 -4 -19 -1 -8 3 -5 6 6 6 11 1 17 -2 13 -5z m118 -3 l40 -9 -55 -1 c-30 0
-62 4 -70 9 -19 12 27 13 85 1z m2630 -1 c3 -5 1 -10 -4 -10 -6 0 -11 5 -11
10 0 6 2 10 4 10 3 0 8 -4 11 -10z m-3607 -14 c3 -3 -8 -7 -24 -8 -16 -1 -36
-2 -44 -4 -8 -1 -26 -3 -40 -4 -23 -1 -23 -2 -5 -9 17 -7 14 -9 -15 -14 -19
-3 -84 -9 -145 -13 -60 -3 -115 -10 -122 -16 -7 -6 -34 -5 -75 3 -35 7 -88 12
-118 12 l-55 -1 50 8 c47 7 64 7 135 -5 23 -3 28 -1 23 10 -4 13 16 15 132 15
86 0 144 4 158 12 l22 12 -25 6 c-14 4 13 6 58 4 46 -1 87 -5 90 -8z m325 7
c-7 -2 -19 -2 -25 0 -7 3 -2 5 12 5 14 0 19 -2 13 -5z m3202 -3 c3 -6 -1 -7
-9 -4 -18 7 -21 14 -7 14 6 0 13 -4 16 -10z m52 4 c-3 -3 -12 -4 -19 -1 -8 3
-5 6 6 6 11 1 17 -2 13 -5z m-4043 -13 c4 -5 -41 -9 -108 -8 -63 1 -109 5
-102 9 16 11 204 10 210 -1z m4159 2 c-7 -2 -21 -2 -30 0 -10 3 -4 5 12 5 17
0 24 -2 18 -5z m1037 -3 c-8 -5 -19 -10 -25 -10 -5 0 -3 5 5 10 8 5 20 10 25
10 6 0 3 -5 -5 -10z m-5022 -7 c-21 -2 -55 -2 -75 0 -21 2 -4 4 37 4 41 0 58
-2 38 -4z m1155 0 c-13 -2 -35 -2 -50 0 -16 2 -5 4 22 4 28 0 40 -2 28 -4z
m157 -3 c-14 -4 -36 -8 -50 -8 -22 0 -22 1 5 8 17 4 39 8 50 8 16 0 15 -2 -5
-8z m3415 0 c-11 -5 -31 -9 -45 -9 -23 0 -23 1 -5 9 11 5 31 9 45 9 23 0 23
-1 5 -9z m-4216 -16 c2 -2 -20 -5 -50 -6 l-54 -1 55 -8 c51 -6 50 -7 -22 -5
-72 2 -121 14 -67 17 18 1 16 3 -11 9 -20 5 3 6 55 3 50 -3 92 -7 94 -9z m271
6 c-11 -7 0 -10 40 -11 50 -2 48 -3 -25 -9 -44 -5 -110 -11 -146 -15 -37 -4
-79 -5 -93 -1 -48 12 -27 26 42 27 37 1 81 5 97 9 46 12 103 12 85 0z m3020 0
c12 -8 12 -10 -5 -10 -11 0 -27 5 -35 10 -12 8 -12 10 5 10 11 0 27 -5 35 -10z
m300 0 c0 -5 -10 -10 -22 -10 -19 0 -20 2 -8 10 19 13 30 13 30 0z m698 3
c-10 -2 -26 -2 -35 0 -10 3 -2 5 17 5 19 0 27 -2 18 -5z m-3643 -18 l-40 -13
45 -4 c25 -3 2 -3 -50 -1 -52 2 -124 6 -160 10 -100 10 -39 21 115 21 120 0
127 -1 90 -13z m-1607 -2 c-10 -2 -28 -2 -40 0 -13 2 -5 4 17 4 22 1 32 -1 23
-4z m1685 0 c-7 -2 -19 -2 -25 0 -7 3 -2 5 12 5 14 0 19 -2 13 -5z m74 1 c-3
-3 -12 -4 -19 -1 -8 3 -5 6 6 6 11 1 17 -2 13 -5z m1890 0 c-3 -3 -12 -4 -19
-1 -8 3 -5 6 6 6 11 1 17 -2 13 -5z m696 -1 c-7 -2 -21 -2 -30 0 -10 3 -4 5
12 5 17 0 24 -2 18 -5z m865 0 c-10 -2 -26 -2 -35 0 -10 3 -2 5 17 5 19 0 27
-2 18 -5z m65 0 c-7 -2 -19 -2 -25 0 -7 3 -2 5 12 5 14 0 19 -2 13 -5z m215 0
c-15 -2 -42 -2 -60 0 -18 2 -6 4 27 4 33 0 48 -2 33 -4z m-4745 -10 c-23 -2
-64 -2 -90 0 -26 2 -7 3 42 3 50 0 71 -1 48 -3z m592 -13 c-27 -5 -88 -8 -135
-7 l-85 1 95 6 c52 3 113 6 135 7 37 0 36 0 -10 -7z m3022 4 c-3 -3 -12 -4
-19 -1 -8 3 -5 6 6 6 11 1 17 -2 13 -5z m206 -1 c-7 -2 -19 -2 -25 0 -7 3 -2
5 12 5 14 0 19 -2 13 -5z m664 1 c-3 -3 -12 -4 -19 -1 -8 3 -5 6 6 6 11 1 17
-2 13 -5z m430 -7 c10 -11 -40 -8 -57 3 -11 7 -6 9 18 7 17 -2 35 -7 39 -10z
m-5109 -4 c-10 -2 -28 -2 -40 0 -13 2 -5 4 17 4 22 1 32 -1 23 -4z m3706 -2
c4 -5 -3 -7 -14 -4 -23 6 -26 13 -6 13 8 0 17 -4 20 -9z m223 3 c-3 -3 -12 -4
-19 -1 -8 3 -5 6 6 6 11 1 17 -2 13 -5z m698 -4 c-28 -12 -47 -12 -40 0 3 6
18 10 33 9 24 0 25 -1 7 -9z m654 6 c-2 -2 -40 -6 -84 -10 -51 -3 -73 -2 -60
4 19 8 153 14 144 6z m-5554 -17 c-19 -5 17 -7 98 -5 70 2 127 -1 127 -6 0 -4
37 -8 83 -9 77 -1 80 -1 52 -14 -29 -13 -27 -14 25 -8 30 3 52 3 49 0 -5 -7
-100 -11 -394 -20 -128 -4 -139 -3 -55 3 58 4 128 9 155 10 l50 3 -40 7 c-26
5 -6 7 55 4 78 -2 86 -1 45 6 -65 11 -194 12 -177 2 8 -6 -4 -9 -30 -9 -39 -1
-40 0 -13 7 24 6 18 8 -31 9 -34 0 -83 4 -110 9 l-49 7 60 6 c33 3 76 6 95 6
l35 1 -30 -9z m718 4 c-7 -2 -19 -2 -25 0 -7 3 -2 5 12 5 14 0 19 -2 13 -5z
m110 0 c-7 -2 -19 -2 -25 0 -7 3 -2 5 12 5 14 0 19 -2 13 -5z m507 -3 c-25 -4
-85 -4 -135 0 -89 7 -88 7 45 7 93 1 121 -2 90 -7z m3877 4 c-3 -3 -12 -4 -19
-1 -8 3 -5 6 6 6 11 1 17 -2 13 -5z m-4890 -10 c-3 -3 -12 -4 -19 -1 -8 3 -5
6 6 6 11 1 17 -2 13 -5z m96 -1 c-13 -2 -33 -2 -45 0 -13 2 -3 4 22 4 25 0 35
-2 23 -4z m70 0 c-7 -2 -21 -2 -30 0 -10 3 -4 5 12 5 17 0 24 -2 18 -5z m995
0 c-10 -2 -28 -2 -40 0 -13 2 -5 4 17 4 22 1 32 -1 23 -4z m2225 0 c-7 -2 -19
-2 -25 0 -7 3 -2 5 12 5 14 0 19 -2 13 -5z m254 1 c-3 -3 -12 -4 -19 -1 -8 3
-5 6 6 6 11 1 17 -2 13 -5z m1070 0 c-3 -3 -12 -4 -19 -1 -8 3 -5 6 6 6 11 1
17 -2 13 -5z m140 0 c-3 -3 -12 -4 -19 -1 -8 3 -5 6 6 6 11 1 17 -2 13 -5z
m170 0 c-3 -3 -12 -4 -19 -1 -8 3 -5 6 6 6 11 1 17 -2 13 -5z m-5539 -11 c-16
-2 -28 -9 -28 -14 0 -5 -26 -8 -57 -8 -32 1 -46 4 -30 6 15 2 27 9 27 14 0 5
26 8 58 8 31 -1 45 -4 30 -6z m760 0 c-10 -2 -28 -2 -40 0 -13 2 -5 4 17 4 22
1 32 -1 23 -4z m795 0 c-7 -2 -21 -2 -30 0 -10 3 -4 5 12 5 17 0 24 -2 18 -5z
m2904 1 c-3 -3 -12 -4 -19 -1 -8 3 -5 6 6 6 11 1 17 -2 13 -5z m726 -1 c-7 -2
-21 -2 -30 0 -10 3 -4 5 12 5 17 0 24 -2 18 -5z m94 1 c-3 -3 -12 -4 -19 -1
-8 3 -5 6 6 6 11 1 17 -2 13 -5z m318 -4 c13 -5 14 -9 5 -9 -8 0 -24 4 -35 9
-13 5 -14 9 -5 9 8 0 24 -4 35 -9z m135 0 c0 -6 22 -8 58 -5 51 4 53 3 17 -5
-22 -5 -74 -8 -115 -8 -42 1 -60 3 -40 6 33 5 34 5 10 12 -20 6 -15 8 23 9 26
1 47 -4 47 -9z m-4797 -7 c-7 -2 -19 -2 -25 0 -7 3 -2 5 12 5 14 0 19 -2 13
-5z m457 -3 c0 -5 -15 -9 -32 -9 l-33 1 30 8 c17 4 31 8 33 9 1 0 2 -3 2 -9z
m2357 4 c-3 -3 -12 -4 -19 -1 -8 3 -5 6 6 6 11 1 17 -2 13 -5z m1746 -1 c-7
-2 -19 -2 -25 0 -7 3 -2 5 12 5 14 0 19 -2 13 -5z m-5420 -10 c-13 -2 -35 -2
-50 0 -16 2 -5 4 22 4 28 0 40 -2 28 -4z m972 -7 c39 -1 78 2 89 7 12 6 16 6
12 -1 -4 -7 10 -12 36 -15 24 -2 -28 -4 -115 -3 -144 1 -185 -4 -139 -18 9 -2
-5 -2 -32 1 -31 4 -47 2 -43 -4 7 -11 -184 -24 -302 -22 -49 1 -31 5 74 14
178 16 248 25 240 34 -4 3 -48 9 -98 12 -51 4 -24 4 58 2 83 -3 182 -6 220 -7z
m422 8 c-3 -3 -12 -4 -19 -1 -8 3 -5 6 6 6 11 1 17 -2 13 -5z m3806 -1 c-7 -2
-19 -2 -25 0 -7 3 -2 5 12 5 14 0 19 -2 13 -5z m-3619 -12 c4 -5 -12 -7 -36
-4 -57 8 -61 13 -10 13 22 0 43 -4 46 -9z m-387 -7 c-3 -3 -12 -4 -19 -1 -8 3
-5 6 6 6 11 1 17 -2 13 -5z m3110 0 c-3 -3 -12 -4 -19 -1 -8 3 -5 6 6 6 11 1
17 -2 13 -5z m-4349 -11 c-10 -2 -26 -2 -35 0 -10 3 -2 5 17 5 19 0 27 -2 18
-5z m1305 0 c-7 -2 -21 -2 -30 0 -10 3 -4 5 12 5 17 0 24 -2 18 -5z m4297 -9
c0 -2 -28 -3 -62 -2 -61 1 -61 1 -18 7 42 6 80 3 80 -5z m-4107 -1 c-7 -2 -19
-2 -25 0 -7 3 -2 5 12 5 14 0 19 -2 13 -5z m3910 0 c-7 -2 -21 -2 -30 0 -10 3
-4 5 12 5 17 0 24 -2 18 -5z m-4313 -12 c14 -4 -19 -7 -75 -8 -77 0 -89 2 -50
7 67 9 95 9 125 1z m303 2 c-13 -2 -35 -2 -50 0 -16 2 -5 4 22 4 28 0 40 -2
28 -4z m3762 -3 c-11 -5 -31 -8 -45 -8 l-25 0 25 8 c14 4 34 8 45 8 l20 1 -20
-9z m290 0 c3 -5 1 -10 -4 -10 -6 0 -11 5 -11 10 0 6 2 10 4 10 3 0 8 -4 11
-10z m-4559 -7 c-4 -4 -65 -12 -136 -18 -71 -6 -126 -7 -122 -3 4 3 61 11 127
16 66 5 124 10 129 11 5 0 6 -2 2 -6z m297 0 c-7 -2 -19 -2 -25 0 -7 3 -2 5
12 5 14 0 19 -2 13 -5z m294 1 c-3 -3 -12 -4 -19 -1 -8 3 -5 6 6 6 11 1 17 -2
13 -5z m180 0 c-3 -3 -12 -4 -19 -1 -8 3 -5 6 6 6 11 1 17 -2 13 -5z m3590 0
c-3 -3 -12 -4 -19 -1 -8 3 -5 6 6 6 11 1 17 -2 13 -5z m281 -1 c-10 -2 -28 -2
-40 0 -13 2 -5 4 17 4 22 1 32 -1 23 -4z m-5145 -10 c-23 -9 -14 -23 15 -24
15 0 22 -3 17 -5 -6 -2 -46 -1 -88 4 -42 4 -80 5 -84 1 -5 -5 -57 -11 -118
-14 -60 -3 -139 -10 -175 -15 -36 -5 -87 -9 -115 -8 -47 1 -46 1 20 10 39 4
140 14 225 22 85 7 135 15 110 16 l-45 3 45 7 c52 8 211 11 193 3z m190 -10
c-7 -2 -19 -2 -25 0 -7 3 -2 5 12 5 14 0 19 -2 13 -5z m646 -9 c2 -2 -9 -4
-25 -4 -16 0 -63 -6 -104 -14 -41 -8 -142 -18 -225 -21 -82 -4 -152 -8 -156
-11 -4 -2 -40 1 -81 7 -40 6 -131 11 -203 11 l-130 1 85 9 c47 4 92 8 100 7
58 -7 550 -3 550 4 0 4 4 6 9 3 5 -3 24 -3 42 2 l34 7 -45 6 c-25 3 -2 4 50 1
52 -2 97 -6 99 -8z m144 9 c-24 -2 -62 -2 -85 0 -24 2 -5 4 42 4 47 0 66 -2
43 -4z m4234 1 c-3 -3 -12 -4 -19 -1 -8 3 -5 6 6 6 11 1 17 -2 13 -5z m-4162
-14 c-3 -5 -15 -10 -25 -10 -10 0 -22 -4 -25 -10 -3 -6 -45 -9 -93 -9 l-87 1
109 14 c59 7 111 15 114 18 9 10 14 7 7 -4z m3608 3 c-7 -2 -21 -2 -30 0 -10
3 -4 5 12 5 17 0 24 -2 18 -5z m-4506 -9 c-3 -3 -12 -4 -19 -1 -8 3 -5 6 6 6
11 1 17 -2 13 -5z m4860 0 c-3 -3 -12 -4 -19 -1 -8 3 -5 6 6 6 11 1 17 -2 13
-5z m181 -1 c-26 -2 -71 -2 -100 0 -29 2 -8 3 47 3 55 0 79 -1 53 -3z m-5700
-10 c-10 -2 -28 -2 -40 0 -13 2 -5 4 17 4 22 1 32 -1 23 -4z m5877 -23 l50 -9
-55 2 c-30 1 -60 -2 -66 -5 -6 -4 -49 -5 -95 -1 -49 4 -75 9 -64 13 29 10 173
10 230 0z m-1228 -6 c-3 -3 -12 -4 -19 -1 -8 3 -5 6 6 6 11 1 17 -2 13 -5z
m577 -9 c19 -15 19 -15 -1 -15 -11 0 -23 7 -27 15 -7 19 3 19 28 0z m73 9 c-3
-3 -12 -4 -19 -1 -8 3 -5 6 6 6 11 1 17 -2 13 -5z m60 0 c-3 -3 -12 -4 -19 -1
-8 3 -5 6 6 6 11 1 17 -2 13 -5z m-4620 -10 c-3 -3 -12 -4 -19 -1 -8 3 -5 6 6
6 11 1 17 -2 13 -5z m343 -4 c0 -6 -38 -9 -97 -8 l-98 2 90 6 c50 3 93 7 98 8
4 1 7 -2 7 -8z m315 -10 c151 -12 177 -18 85 -19 -36 -1 -76 -4 -90 -7 -18 -4
-21 -3 -11 4 10 7 -6 12 -60 15 -41 2 -90 9 -109 15 l-35 11 45 -4 c25 -2 104
-9 175 -15z m302 14 c-3 -3 -12 -4 -19 -1 -8 3 -5 6 6 6 11 1 17 -2 13 -5z
m80 0 c-3 -3 -12 -4 -19 -1 -8 3 -5 6 6 6 11 1 17 -2 13 -5z m-954 -11 c-7 -2
-19 -2 -25 0 -7 3 -2 5 12 5 14 0 19 -2 13 -5z m890 -10 c-13 -2 -33 -2 -45 0
-13 2 -3 4 22 4 25 0 35 -2 23 -4z m3904 1 c-3 -3 -12 -4 -19 -1 -8 3 -5 6 6
6 11 1 17 -2 13 -5z m150 -10 c-3 -3 -12 -4 -19 -1 -8 3 -5 6 6 6 11 1 17 -2
13 -5z m156 -1 c-24 -2 -62 -2 -85 0 -24 2 -5 4 42 4 47 0 66 -2 43 -4z
m-5863 -13 c0 -6 -31 -9 -77 -8 l-78 1 60 7 c33 4 68 7 78 8 9 1 17 -2 17 -8z
m395 0 c23 -6 10 -8 -50 -10 -44 -2 -92 -4 -107 -4 -16 -1 -28 2 -28 6 0 6 55
12 135 15 11 0 34 -3 50 -7z m464 0 c-42 -4 -93 -4 -115 0 -27 5 -3 8 76 7
112 0 113 0 39 -7z m324 3 c-18 -2 -48 -2 -65 0 -18 2 -4 4 32 4 36 0 50 -2
33 -4z m424 1 c-3 -3 -12 -4 -19 -1 -8 3 -5 6 6 6 11 1 17 -2 13 -5z m-1512
-14 c-28 -12 -88 -12 -80 0 3 6 27 10 53 9 35 0 42 -3 27 -9z m677 -8 c4 -4
-69 -7 -163 -6 -93 0 -173 4 -177 9 -4 4 37 5 91 2 67 -4 95 -2 91 5 -7 12
145 2 158 -10z m653 6 c-33 -4 -105 -10 -160 -12 l-100 -4 103 8 c57 4 106 10
109 14 4 3 29 5 57 5 l51 -2 -60 -9z m142 -4 c-3 -3 -12 -4 -19 -1 -8 3 -5 6
6 6 11 1 17 -2 13 -5z m3656 -1 c-7 -2 -19 -2 -25 0 -7 3 -2 5 12 5 14 0 19
-2 13 -5z m-4244 -7 c-9 -9 -106 -13 -149 -6 -36 6 -25 8 54 9 55 0 97 -1 95
-3z m161 -6 c-8 -5 -28 -9 -45 -9 -29 1 -29 1 -5 9 14 4 34 8 45 9 16 1 17 -1
5 -9z m4552 -6 c-26 -8 -56 -10 -75 -6 -28 6 -25 8 28 13 90 9 94 8 47 -7z
m91 9 c-7 -2 -21 -2 -30 0 -10 3 -4 5 12 5 17 0 24 -2 18 -5z m-5548 -13 c-11
-5 -51 -8 -90 -7 l-70 1 75 6 c41 4 82 7 90 7 8 1 6 -2 -5 -7z m5639 1 c3 -5
0 -11 -7 -14 -20 -8 -223 -21 -217 -14 3 3 37 8 75 12 39 3 84 9 100 14 40 12
43 12 49 2z m-5111 -8 c-7 -2 -19 -2 -25 0 -7 3 -2 5 12 5 14 0 19 -2 13 -5z
m890 0 c-7 -2 -21 -2 -30 0 -10 3 -4 5 12 5 17 0 24 -2 18 -5z m-1375 -10
c-10 -2 -26 -2 -35 0 -10 3 -2 5 17 5 19 0 27 -2 18 -5z m129 -5 c-16 -10
-107 -10 -107 0 0 4 27 7 60 7 32 1 54 -3 47 -7z m286 5 c3 -5 -18 -9 -47 -9
-37 -1 -44 1 -26 6 34 11 68 12 73 3z m790 0 c-7 -2 -19 -2 -25 0 -7 3 -2 5
12 5 14 0 19 -2 13 -5z m-693 -13 c18 -12 2 -12 -25 0 -13 6 -15 9 -5 9 8 0
22 -4 30 -9z m3495 0 c3 -6 -1 -7 -9 -4 -18 7 -21 14 -7 14 6 0 13 -4 16 -10z
m62 4 c-3 -3 -12 -4 -19 -1 -8 3 -5 6 6 6 11 1 17 -2 13 -5z m-3900 -10 c-3
-3 -12 -4 -19 -1 -8 3 -5 6 6 6 11 1 17 -2 13 -5z m961 -1 c-16 -2 -40 -2 -55
0 -16 2 -3 4 27 4 30 0 43 -2 28 -4z m92 -3 l25 -8 -25 0 c-14 0 -34 3 -45 8
l-20 9 20 -1 c11 0 31 -4 45 -8z m93 3 c-7 -2 -19 -2 -25 0 -7 3 -2 5 12 5 14
0 19 -2 13 -5z m4310 0 c-7 -2 -19 -2 -25 0 -7 3 -2 5 12 5 14 0 19 -2 13 -5z
m-626 -9 c-3 -3 -12 -4 -19 -1 -8 3 -5 6 6 6 11 1 17 -2 13 -5z m-5037 -13
c38 -7 40 -9 13 -10 -17 0 -40 -4 -50 -7 -15 -5 -16 -4 -3 6 18 14 -144 7
-213 -10 -25 -6 -54 -7 -72 -2 -25 8 -15 10 60 16 50 4 95 9 100 11 18 6 119
4 165 -4z m688 2 c-10 -2 -26 -2 -35 0 -10 3 -2 5 17 5 19 0 27 -2 18 -5z
m401 3 c-2 -2 -40 -6 -84 -8 -45 -3 -67 -2 -50 2 30 8 142 13 134 6z m-902
-13 c-7 -7 -129 -4 -136 3 -2 2 29 4 69 4 40 0 70 -3 67 -7z m146 0 c-24 -2
-62 -2 -85 0 -24 2 -5 4 42 4 47 0 66 -2 43 -4z m501 -2 c5 -8 -114 -23 -122
-15 -4 3 75 21 100 23 9 1 19 -3 22 -8z m324 2 c-10 -2 -28 -2 -40 0 -13 2 -5
4 17 4 22 1 32 -1 23 -4z m195 0 c-13 -2 -35 -2 -50 0 -16 2 -5 4 22 4 28 0
40 -2 28 -4z m-658 -13 c-3 -5 -21 -9 -38 -9 l-32 2 35 7 c19 4 36 8 38 9 2 0
0 -3 -3 -9z m4831 -18 c-16 -2 -32 0 -37 5 -5 5 7 7 29 4 34 -5 35 -6 8 -9z
m-5415 -10 c-30 -2 -58 0 -62 5 -4 4 20 6 54 3 l62 -5 -54 -3z m508 14 c-2 -2
-47 -6 -99 -8 -54 -3 -78 -2 -55 2 42 8 161 13 154 6z m-1002 -22 c-3 -3 -12
-4 -19 -1 -8 3 -5 6 6 6 11 1 17 -2 13 -5z m391 -1 c-10 -2 -28 -2 -40 0 -13
2 -5 4 17 4 22 1 32 -1 23 -4z m272 -3 c-30 -5 -93 -8 -140 -7 l-85 1 70 6
c39 4 102 7 140 7 l70 0 -55 -7z m-402 -7 c-15 -2 -42 -2 -60 0 -18 2 -6 4 27
4 33 0 48 -2 33 -4z m815 0 c-13 -2 -33 -2 -45 0 -13 2 -3 4 22 4 25 0 35 -2
23 -4z m-130 -10 c-7 -2 -21 -2 -30 0 -10 3 -4 5 12 5 17 0 24 -2 18 -5z m595
0 c-26 -2 -71 -2 -100 0 -29 2 -8 3 47 3 55 0 79 -1 53 -3z"/>
<path d="M2903 1023 c-32 -12 -7 -21 59 -22 75 -1 90 5 23 10 -22 1 -47 6 -55
9 -8 4 -21 5 -27 3z"/>
<path d="M2558 993 c7 -3 16 -2 19 1 4 3 -2 6 -13 5 -11 0 -14 -3 -6 -6z"/>
<path d="M2700 980 c20 -13 40 -13 40 0 0 6 -12 10 -27 10 -22 0 -25 -2 -13
-10z"/>
<path d="M5348 763 c7 -3 16 -2 19 1 4 3 -2 6 -13 5 -11 0 -14 -3 -6 -6z"/>
<path d="M1130 700 c-8 -5 -40 -10 -70 -11 -54 -2 -54 -2 -15 -9 l40 -6 -40
-8 c-65 -12 -64 -14 10 -15 49 0 65 2 55 9 -8 5 -10 10 -5 11 6 1 15 2 20 4 6
1 19 3 30 4 16 1 17 3 6 10 -11 7 -9 10 10 14 l24 4 -25 1 c-14 1 -32 -3 -40
-8z"/>
<path d="M1228 703 c18 -2 45 -2 60 0 15 2 0 4 -33 4 -33 0 -45 -2 -27 -4z"/>
<path d="M1608 693 c6 -2 18 -2 25 0 6 3 1 5 -13 5 -14 0 -19 -2 -12 -5z"/>
<path d="M4600 731 c0 -6 15 -11 33 -11 24 0 28 -3 17 -10 -12 -8 -11 -10 8
-10 21 0 30 14 15 23 -21 12 -73 18 -73 8z"/>
<path d="M628 553 c6 -2 18 -2 25 0 6 3 1 5 -13 5 -14 0 -19 -2 -12 -5z"/>
<path d="M523 463 c15 -2 39 -2 55 0 15 2 2 4 -28 4 -30 0 -43 -2 -27 -4z"/>
<path d="M1273 463 c9 -2 23 -2 30 0 6 3 -1 5 -18 5 -16 0 -22 -2 -12 -5z"/>
<path d="M1178 453 c12 -2 32 -2 45 0 12 2 2 4 -23 4 -25 0 -35 -2 -22 -4z"/>
<path d="M1577 463 c18 -2 50 -2 70 0 21 2 7 4 -32 4 -38 0 -55 -2 -38 -4z"/>
<path d="M928 253 c7 -3 16 -2 19 1 4 3 -2 6 -13 5 -11 0 -14 -3 -6 -6z"/>
<path d="M3315 1470 c-3 -5 -1 -10 4 -10 6 0 11 5 11 10 0 6 -2 10 -4 10 -3 0
-8 -4 -11 -10z"/>
<path d="M2050 1452 c0 -13 38 -23 46 -11 3 5 1 9 -5 9 -5 0 -16 3 -25 6 -9 3
-16 2 -16 -4z"/>
<path d="M2732 1440 c0 -14 2 -19 5 -12 2 6 2 18 0 25 -3 6 -5 1 -5 -13z"/>
<path d="M3362 1435 c0 -16 2 -22 5 -12 2 9 2 23 0 30 -3 6 -5 -1 -5 -18z"/>
<path d="M1943 1443 c9 -2 25 -2 35 0 9 3 1 5 -18 5 -19 0 -27 -2 -17 -5z"/>
<path d="M1912 1421 c-14 -8 -8 -16 27 -36 10 -6 12 -4 6 5 -6 10 -4 12 8 7
10 -3 17 -2 17 3 0 6 -12 10 -27 11 -25 0 -26 1 -8 9 13 6 15 9 5 9 -8 0 -21
-3 -28 -8z"/>
<path d="M5652 1269 l-2 -167 -30 -4 c-29 -4 -37 5 -31 36 5 25 -11 56 -29 56
-18 0 -20 9 -23 103 l-3 102 -2 -102 -2 -103 -44 0 c-44 0 -44 0 -48 -39 -2
-22 -2 -45 0 -50 2 -6 31 -11 68 -11 l64 0 -20 -20 c-11 -11 -20 -27 -20 -35
0 -14 15 -16 95 -14 72 1 95 5 95 15 0 10 -22 14 -82 17 l-83 3 87 2 c83 2
138 15 138 34 0 4 -3 7 -7 7 -5 -1 -32 -1 -60 0 l-53 1 -3 168 -3 167 -2 -166z
m-82 -99 c0 -5 -11 -10 -25 -10 -14 0 -25 5 -25 10 0 6 11 10 25 10 14 0 25
-4 25 -10z m-16 -36 c8 -22 8 -24 -8 -24 -15 0 -28 24 -19 34 11 10 21 7 27
-10z"/>
<path d="M2386 1412 c-3 -6 -1 -14 5 -17 15 -10 25 3 12 16 -7 7 -13 7 -17 1z"/>
<path d="M2335 1400 c27 -12 43 -12 25 0 -8 5 -22 9 -30 9 -10 0 -8 -3 5 -9z"/>
<path d="M2420 1395 c0 -8 5 -15 10 -15 6 0 10 7 10 15 0 8 -4 15 -10 15 -5 0
-10 -7 -10 -15z"/>
<path d="M2570 1385 c0 -19 5 -24 20 -22 29 5 37 17 11 17 -17 0 -21 4 -17 15
3 8 1 15 -4 15 -6 0 -10 -11 -10 -25z"/>
<path d="M2723 1394 c-16 -42 59 -74 88 -38 12 16 12 17 -2 12 -10 -4 -16 -1
-16 8 0 10 7 12 21 8 21 -6 21 -6 1 10 -27 21 -84 21 -92 0z"/>
<path d="M1988 1393 c7 -3 16 -2 19 1 4 3 -2 6 -13 5 -11 0 -14 -3 -6 -6z"/>
<path d="M2460 1386 c0 -2 7 -7 16 -10 8 -3 12 -2 9 4 -6 10 -25 14 -25 6z"/>
<path d="M2667 1383 c-12 -12 -7 -33 7 -33 9 0 14 9 13 20 -1 20 -9 25 -20 13z"/>
<path d="M5424 1295 c0 -55 1 -76 3 -47 2 29 2 74 0 100 -2 26 -3 2 -3 -53z"/>
<path d="M4585 1360 c4 -6 15 -8 25 -5 10 3 24 -1 32 -8 11 -12 16 -12 26 0 7
7 11 13 10 14 -2 0 -25 3 -52 5 -34 4 -46 2 -41 -6z"/>
<path d="M2930 1335 c7 -8 17 -15 22 -15 6 0 5 7 -2 15 -7 8 -17 15 -22 15 -6
0 -5 -7 2 -15z"/>
<path d="M4511 1321 c-8 -15 -7 -20 6 -25 9 -4 18 -4 21 -1 3 3 0 5 -6 5 -7 0
-12 7 -12 16 0 10 5 14 16 10 8 -3 12 -2 9 4 -10 15 -23 12 -34 -9z"/>
<path d="M4611 1314 c0 -11 3 -14 6 -6 3 7 2 16 -1 19 -3 4 -6 -2 -5 -13z"/>
<path d="M2940 1313 c-34 -6 -48 -21 -16 -18 15 2 33 -3 41 -12 13 -13 15 -11
15 11 0 14 -3 25 -7 25 -5 -1 -19 -4 -33 -6z"/>
<path d="M4650 1313 c0 -4 5 -15 10 -23 8 -13 10 -13 10 2 0 9 -4 20 -10 23
-5 3 -10 3 -10 -2z"/>
<path d="M3070 1300 c0 -5 5 -10 10 -10 6 0 10 5 10 10 0 6 -4 10 -10 10 -5 0
-10 -4 -10 -10z"/>
<path d="M3115 1300 c-3 -5 1 -10 10 -10 9 0 13 5 10 10 -3 6 -8 10 -10 10 -2
0 -7 -4 -10 -10z"/>
<path d="M3002 1275 c0 -16 2 -22 5 -12 2 9 2 23 0 30 -3 6 -5 -1 -5 -18z"/>
<path d="M3391 1273 c-1 -13 1 -23 3 -23 2 0 11 -3 19 -6 9 -3 16 3 20 15 3
14 0 21 -9 21 -8 0 -14 -6 -15 -12 0 -7 -4 -4 -9 7 -8 19 -9 19 -9 -2z"/>
<path d="M2883 1236 c11 -66 51 -94 88 -60 14 13 16 21 8 35 -5 11 -7 25 -3
32 5 7 1 6 -10 -2 -10 -9 -20 -11 -24 -5 -4 5 -16 16 -26 24 -18 13 -19 13
-11 0 8 -13 7 -13 -10 0 -17 14 -18 13 -12 -24z"/>
<path d="M5250 1230 c8 -5 22 -9 30 -9 10 0 8 3 -5 9 -27 12 -43 12 -25 0z"/>
<path d="M3092 1200 c0 -14 2 -19 5 -12 2 6 2 18 0 25 -3 6 -5 1 -5 -13z"/>
<path d="M2550 1164 c0 -8 5 -12 10 -9 6 3 10 10 10 16 0 5 -4 9 -10 9 -5 0
-10 -7 -10 -16z"/>
<path d="M5411 1173 c0 -4 4 -17 9 -28 8 -19 9 -19 9 2 1 12 -3 25 -9 28 -5 3
-10 3 -9 -2z"/>
<path d="M3126 1122 c-4 -10 -3 -28 1 -38 6 -15 8 -14 15 11 8 33 -6 58 -16
27z"/>
<path d="M2333 1123 c9 -2 25 -2 35 0 9 3 1 5 -18 5 -19 0 -27 -2 -17 -5z"/>
<path d="M5248 1103 c7 -3 16 -2 19 1 4 3 -2 6 -13 5 -11 0 -14 -3 -6 -6z"/>
<path d="M2270 1030 c0 -5 5 -10 10 -10 6 0 10 5 10 10 0 6 -4 10 -10 10 -5 0
-10 -4 -10 -10z"/>
<path d="M2068 978 c9 -9 15 -9 24 0 9 9 7 12 -12 12 -19 0 -21 -3 -12 -12z"/>
<path d="M438 913 c7 -3 16 -2 19 1 4 3 -2 6 -13 5 -11 0 -14 -3 -6 -6z"/>
<path d="M708 903 c7 -3 16 -2 19 1 4 3 -2 6 -13 5 -11 0 -14 -3 -6 -6z"/>
<path d="M978 903 c7 -3 16 -2 19 1 4 3 -2 6 -13 5 -11 0 -14 -3 -6 -6z"/>
<path d="M1388 893 c7 -3 16 -2 19 1 4 3 -2 6 -13 5 -11 0 -14 -3 -6 -6z"/>
<path d="M1548 893 c6 -2 18 -2 25 0 6 3 1 5 -13 5 -14 0 -19 -2 -12 -5z"/>
<path d="M98 883 c6 -2 18 -2 25 0 6 3 1 5 -13 5 -14 0 -19 -2 -12 -5z"/>
<path d="M310 880 c8 -5 20 -10 25 -10 6 0 3 5 -5 10 -8 5 -19 10 -25 10 -5 0
-3 -5 5 -10z"/>
<path d="M1208 883 c6 -2 18 -2 25 0 6 3 1 5 -13 5 -14 0 -19 -2 -12 -5z"/>
<path d="M1358 878 c5 -5 16 -8 23 -6 8 3 3 7 -10 11 -17 4 -21 3 -13 -5z"/>
<path d="M1738 883 c7 -3 16 -2 19 1 4 3 -2 6 -13 5 -11 0 -14 -3 -6 -6z"/>
<path d="M5968 883 c6 -2 18 -2 25 0 6 3 1 5 -13 5 -14 0 -19 -2 -12 -5z"/>
<path d="M1020 870 c0 -5 7 -10 16 -10 8 0 12 5 9 10 -3 6 -10 10 -16 10 -5 0
-9 -4 -9 -10z"/>
<path d="M212 858 c-21 -21 -13 -28 31 -27 30 2 34 3 14 6 -23 4 -26 7 -16 19
9 11 8 14 -3 14 -8 0 -19 -5 -26 -12z"/>
<path d="M545 860 l20 -9 -20 -1 c-11 -1 -15 -4 -9 -6 6 -3 24 2 40 11 l29 15
-40 -1 c-31 0 -36 -2 -20 -9z"/>
<path d="M688 863 c6 -2 18 -2 25 0 6 3 1 5 -13 5 -14 0 -19 -2 -12 -5z"/>
<path d="M5700 861 c0 -5 7 -12 16 -15 24 -9 27 -7 10 9 -17 17 -26 19 -26 6z"/>
<path d="M5738 863 c7 -3 16 -2 19 1 4 3 -2 6 -13 5 -11 0 -14 -3 -6 -6z"/>
<path d="M5950 860 c8 -5 22 -9 30 -9 10 0 8 3 -5 9 -27 12 -43 12 -25 0z"/>
<path d="M128 853 c7 -3 16 -2 19 1 4 3 -2 6 -13 5 -11 0 -14 -3 -6 -6z"/>
<path d="M835 850 c3 -6 20 -10 37 -10 38 0 34 5 -10 13 -21 4 -31 3 -27 -3z"/>
<path d="M1315 850 c-28 -8 -27 -8 10 -7 23 0 48 -3 55 -7 8 -4 6 0 -4 8 -11
9 -22 15 -25 15 -3 -1 -19 -5 -36 -9z"/>
<path d="M23 843 c9 -2 25 -2 35 0 9 3 1 5 -18 5 -19 0 -27 -2 -17 -5z"/>
<path d="M350 840 c-12 -8 -9 -10 13 -10 16 0 26 4 22 10 -8 12 -16 12 -35 0z"/>
<path d="M938 843 c7 -3 16 -2 19 1 4 3 -2 6 -13 5 -11 0 -14 -3 -6 -6z"/>
<path d="M1132 837 c11 -4 37 -5 57 -1 29 4 33 3 21 -6 -12 -10 -12 -11 5 -4
11 4 30 8 43 8 12 1 22 4 22 9 0 4 -38 6 -84 5 -54 -2 -77 -6 -64 -11z"/>
<path d="M5780 846 c0 -2 9 -6 20 -9 11 -3 20 -1 20 4 0 5 -9 9 -20 9 -11 0
-20 -2 -20 -4z"/>
<path d="M6088 843 c6 -2 18 -2 25 0 6 3 1 5 -13 5 -14 0 -19 -2 -12 -5z"/>
<path d="M290 825 c0 -9 6 -12 15 -9 8 4 15 7 15 9 0 2 -7 5 -15 9 -9 3 -15 0
-15 -9z"/>
<path d="M415 831 c18 -7 16 -9 -12 -15 -38 -9 -54 -26 -24 -26 12 0 21 4 21
10 0 6 9 6 26 0 34 -13 37 -13 30 5 -3 10 1 15 11 15 27 0 11 7 -32 13 -25 4
-33 3 -20 -2z"/>
<path d="M1553 833 c9 -2 23 -2 30 0 6 3 -1 5 -18 5 -16 0 -22 -2 -12 -5z"/>
<path d="M1663 829 c-11 -11 -172 -16 -208 -6 l-30 9 30 -17 c24 -13 45 -15
105 -10 41 3 97 8 123 11 30 2 46 0 42 -6 -4 -6 8 -10 29 -10 20 0 36 4 36 9
0 11 -117 30 -127 20z"/>
<path d="M1803 833 c9 -2 23 -2 30 0 6 3 -1 5 -18 5 -16 0 -22 -2 -12 -5z"/>
<path d="M5920 830 c-24 -8 -23 -8 8 -9 17 -1 32 4 32 9 0 11 -5 11 -40 0z"/>
<path d="M6000 830 c14 -4 19 -8 11 -9 -8 -1 -12 -3 -9 -6 3 -4 19 -3 34 1
l29 8 -25 7 c-14 4 -34 7 -45 7 -16 0 -15 -2 5 -8z"/>
<path d="M0 816 c0 -15 7 -17 58 -13 31 3 59 6 62 7 8 2 -34 19 -50 19 -13 1
-13 0 0 -9 11 -7 8 -10 -16 -10 -16 0 -35 5 -42 12 -9 9 -12 8 -12 -6z"/>
<path d="M638 818 c9 -9 15 -9 24 0 9 9 7 12 -12 12 -19 0 -21 -3 -12 -12z"/>
<path d="M740 820 c-12 -8 -9 -10 15 -11 l30 -1 -30 -7 c-27 -6 -24 -8 25 -14
30 -3 73 -2 95 3 34 8 31 8 -20 4 -66 -6 -70 0 -9 15 l39 9 -45 1 c-25 1 -54
4 -65 6 -11 3 -27 1 -35 -5z"/>
<path d="M930 819 l-35 -6 33 -2 c17 0 32 -5 32 -11 0 -5 11 -10 24 -10 14 0
28 5 31 10 3 6 17 10 31 10 13 0 24 5 24 10 0 11 -80 11 -140 -1z m55 -9 c3
-5 2 -10 -4 -10 -5 0 -13 5 -16 10 -3 6 -2 10 4 10 5 0 13 -4 16 -10z"/>
<path d="M4540 818 c0 -4 4 -8 9 -8 6 0 12 4 15 8 3 5 -1 9 -9 9 -8 0 -15 -4
-15 -9z"/>
<path d="M143 813 c9 -2 25 -2 35 0 9 3 1 5 -18 5 -19 0 -27 -2 -17 -5z"/>
<path d="M540 810 c0 -5 -10 -10 -22 -10 -12 0 -19 -3 -15 -6 9 -9 77 5 77 16
0 6 -9 10 -20 10 -11 0 -20 -4 -20 -10z"/>
<path d="M1134 811 c4 -5 -6 -11 -21 -13 -16 -2 1 -5 37 -6 36 -1 71 2 78 7 8
5 3 8 -15 8 -16 0 -41 3 -57 7 -17 4 -25 3 -22 -3z"/>
<path d="M5748 813 c6 -2 18 -2 25 0 6 3 1 5 -13 5 -14 0 -19 -2 -12 -5z"/>
<path d="M158 793 c6 -2 18 -2 25 0 6 3 1 5 -13 5 -14 0 -19 -2 -12 -5z"/>
<path d="M603 794 c3 -4 28 -6 54 -6 38 0 43 -2 23 -8 -15 -5 -18 -8 -8 -9 9
-1 24 2 33 5 13 5 14 8 3 15 -15 10 -115 12 -105 3z"/>
<path d="M6062 790 c-13 -6 -51 -8 -85 -6 -34 2 -54 2 -44 -1 9 -2 17 -8 17
-12 0 -4 26 -4 58 0 31 3 61 4 67 1 14 -9 -46 -22 -75 -16 -25 4 -25 4 -2 -6
17 -7 38 -6 75 4 29 8 42 15 30 15 -13 1 -23 5 -23 10 0 5 9 7 20 4 11 -3 20
0 20 6 0 13 -26 13 -58 1z"/>
<path d="M275 780 l-20 -9 20 1 c11 0 34 4 50 8 l30 8 -30 0 c-16 0 -39 -3
-50 -8z"/>
<path d="M1878 783 c7 -3 16 -2 19 1 4 3 -2 6 -13 5 -11 0 -14 -3 -6 -6z"/>
<path d="M1915 780 c-3 -5 3 -10 14 -10 12 0 21 5 21 10 0 6 -6 10 -14 10 -8
0 -18 -4 -21 -10z"/>
<path d="M60 768 c0 -5 22 -6 48 -2 37 5 51 2 61 -10 7 -9 10 -16 5 -16 -5 0
-2 -5 6 -10 12 -7 8 -10 -15 -10 -23 0 -27 -3 -15 -10 11 -7 -3 -10 -45 -10
-67 0 -105 -8 -105 -21 0 -14 250 0 279 16 24 13 21 14 -39 10 l-65 -4 80 15
c44 8 94 12 110 10 17 -3 39 -1 50 4 19 8 18 9 -5 11 -14 1 -36 2 -50 1 -14
-1 -19 1 -12 4 6 3 9 10 6 15 -4 6 -10 6 -18 0 -14 -12 -98 -17 -114 -7 -7 4
-12 2 -12 -4 0 -6 -12 -2 -27 9 -19 16 -39 21 -75 20 -26 -1 -48 -6 -48 -11z
m243 -35 c-7 -2 -21 -2 -30 0 -10 3 -4 5 12 5 17 0 24 -2 18 -5z m-200 -50
c-7 -2 -19 -2 -25 0 -7 3 -2 5 12 5 14 0 19 -2 13 -5z"/>
<path d="M378 773 c7 -3 16 -2 19 1 4 3 -2 6 -13 5 -11 0 -14 -3 -6 -6z"/>
<path d="M556 771 c5 -6 24 -6 44 -1 l35 8 -44 1 c-28 1 -41 -3 -35 -8z"/>
<path d="M748 773 c7 -3 16 -2 19 1 4 3 -2 6 -13 5 -11 0 -14 -3 -6 -6z"/>
<path d="M675 762 c-36 -4 -37 -6 -15 -12 23 -7 22 -8 -9 -9 -52 -2 -29 -13
31 -16 59 -2 82 5 52 16 -15 6 -11 8 15 8 19 1 32 3 30 5 -9 7 -66 12 -104 8z"/>
<path d="M5870 766 c0 -2 11 -6 25 -8 13 -3 22 -1 19 3 -5 9 -44 13 -44 5z"/>
<path d="M6 744 c-5 -12 -2 -15 10 -10 8 3 18 6 20 6 2 0 4 5 4 10 0 16 -27
11 -34 -6z"/>
<path d="M1240 750 c-11 -8 -7 -9 15 -4 37 8 45 14 19 14 -10 0 -26 -5 -34
-10z"/>
<path d="M6105 740 c3 -5 8 -10 11 -10 2 0 4 5 4 10 0 6 -5 10 -11 10 -5 0 -7
-4 -4 -10z"/>
<path d="M98 733 c12 -2 30 -2 40 0 9 3 -1 5 -23 4 -22 0 -30 -2 -17 -4z"/>
<path d="M5688 723 c6 -2 18 -2 25 0 6 3 1 5 -13 5 -14 0 -19 -2 -12 -5z"/>
<path d="M5755 720 c3 -5 1 -10 -4 -10 -6 0 -11 -4 -11 -10 0 -12 47 -13 54
-1 3 4 -6 13 -20 20 -15 6 -23 7 -19 1z"/>
<path d="M7 713 c7 -2 19 -2 26 0 6 3 1 5 -13 5 -14 0 -19 -2 -13 -5z"/>
<path d="M545 710 c-16 -7 -17 -9 -3 -9 9 -1 20 4 23 9 7 11 7 11 -20 0z"/>
<path d="M5828 703 c6 -2 18 -2 25 0 6 3 1 5 -13 5 -14 0 -19 -2 -12 -5z"/>
<path d="M5879 692 c11 -8 11 -10 0 -15 -8 -3 1 -6 19 -6 17 -1 32 4 32 9 0 6
-6 10 -14 10 -8 0 -23 3 -33 6 -13 4 -15 3 -4 -4z"/>
<path d="M5818 683 c6 -2 18 -2 25 0 6 3 1 5 -13 5 -14 0 -19 -2 -12 -5z"/>
<path d="M633 643 c9 -2 25 -2 35 0 9 3 1 5 -18 5 -19 0 -27 -2 -17 -5z"/>
<path d="M6040 640 c8 -5 31 -9 50 -9 32 1 33 2 10 9 -14 4 -36 8 -50 9 -20 1
-22 -1 -10 -9z"/>
<path d="M333 573 c9 -2 25 -2 35 0 9 3 1 5 -18 5 -19 0 -27 -2 -17 -5z"/>
</g>
</svg>
